G04*
G04 #@! TF.GenerationSoftware,Altium Limited,Altium Designer,22.5.1 (42)*
G04*
G04 Layer_Color=32768*
%FSLAX24Y24*%
%MOIN*%
G70*
G04*
G04 #@! TF.SameCoordinates,CA2130CD-DD2B-4D4C-96E1-355C1CFE4D94*
G04*
G04*
G04 #@! TF.FilePolarity,Positive*
G04*
G01*
G75*
%ADD11C,0.0079*%
%ADD12C,0.0039*%
%ADD45C,0.0020*%
D11*
X21555Y2250D02*
Y3339D01*
Y2250D02*
X23484D01*
Y3339D01*
X21555D02*
X23484D01*
X21555Y5400D02*
Y6489D01*
Y5400D02*
X23484D01*
Y6489D01*
X21555D02*
X23484D01*
D12*
X23519Y15180D02*
Y19904D01*
X19778Y15180D02*
X23519D01*
X19778D02*
Y19904D01*
X23519D01*
X22400Y2800D02*
X22600D01*
X22500Y2700D02*
Y2900D01*
X22400Y5950D02*
X22600D01*
X22500Y5850D02*
Y6050D01*
X10281Y4150D02*
X10675D01*
X10478Y3953D02*
Y4347D01*
X10281Y5500D02*
X10675D01*
X10478Y5303D02*
Y5697D01*
X18400Y16603D02*
Y16997D01*
X18203Y16800D02*
X18597D01*
X19700Y1733D02*
Y2127D01*
X19503Y1930D02*
X19897D01*
X19700Y4853D02*
Y5247D01*
X19503Y5050D02*
X19897D01*
D45*
X17952Y6862D02*
X23248D01*
Y14638D01*
X17952D02*
X23248D01*
X17952Y6862D02*
Y14638D01*
X12555Y3638D02*
Y4662D01*
X8402D02*
X12555D01*
X8402Y3638D02*
X12555D01*
X8402D02*
Y4662D01*
X12555Y4988D02*
Y6012D01*
X8402D02*
X12555D01*
X8402Y4988D02*
X12555D01*
X8402D02*
Y6012D01*
X8927Y12631D02*
Y15469D01*
X12273D01*
Y12631D02*
Y15469D01*
X8927Y12631D02*
X12273D01*
X17888Y14723D02*
X18912D01*
Y18877D01*
X17888Y14723D02*
Y18877D01*
X18912D01*
X17889Y513D02*
Y3348D01*
Y513D02*
X21511D01*
Y3348D01*
X17889D02*
X21511D01*
X17889Y3633D02*
Y6467D01*
Y3633D02*
X21511D01*
Y6467D01*
X17889D02*
X21511D01*
M02*
