G04*
G04 #@! TF.GenerationSoftware,Altium Limited,Altium Designer,22.5.1 (42)*
G04*
G04 Layer_Color=32768*
%FSLAX24Y24*%
%MOIN*%
G70*
G04*
G04 #@! TF.SameCoordinates,CA2130CD-DD2B-4D4C-96E1-355C1CFE4D94*
G04*
G04*
G04 #@! TF.FilePolarity,Positive*
G04*
G01*
G75*
%ADD13C,0.0100*%
D13*
X600Y13950D02*
Y17950D01*
X1600D01*
Y13950D02*
Y17950D01*
X600Y13950D02*
X1600D01*
X600D02*
Y14950D01*
X1600D01*
X600Y9075D02*
Y13075D01*
X1600D01*
Y9075D02*
Y13075D01*
X600Y9075D02*
X1600D01*
X600D02*
Y10075D01*
X1600D01*
X600Y4200D02*
Y8200D01*
X1600D01*
Y4200D02*
Y8200D01*
X600Y4200D02*
X1600D01*
X600D02*
Y5200D01*
X1600D01*
X2300Y4700D02*
X3300D01*
Y700D02*
Y4700D01*
X2300Y700D02*
Y4700D01*
Y700D02*
X3300D01*
X2300D02*
Y1700D01*
X3300D01*
X17350Y1629D02*
Y16700D01*
X16350Y1629D02*
X17350D01*
X16350D02*
Y16700D01*
X17350D01*
Y15700D02*
Y16700D01*
X16350Y15700D02*
X17350D01*
X4600Y1629D02*
Y16700D01*
X3600Y1629D02*
X4600D01*
X3600D02*
Y16700D01*
X4600D01*
Y15700D02*
Y16700D01*
X3600Y15700D02*
X4600D01*
M02*
