G04*
G04 #@! TF.GenerationSoftware,Altium Limited,Altium Designer,22.5.1 (42)*
G04*
G04 Layer_Color=16711935*
%FSLAX24Y24*%
%MOIN*%
G70*
G04*
G04 #@! TF.SameCoordinates,CA2130CD-DD2B-4D4C-96E1-355C1CFE4D94*
G04*
G04*
G04 #@! TF.FilePolarity,Positive*
G04*
G01*
G75*
%ADD11C,0.0079*%
%ADD12C,0.0039*%
D11*
X23125Y15573D02*
Y19510D01*
X20172Y15573D02*
X23125D01*
X20172D02*
Y19510D01*
X23125D01*
D12*
X20389Y1930D02*
G03*
X20389Y1930I-689J0D01*
G01*
Y5050D02*
G03*
X20389Y5050I-689J0D01*
G01*
X18051Y7461D02*
X18551Y6961D01*
X18051D02*
X23149D01*
Y14539D01*
X18051D02*
X23149D01*
X18051Y6961D02*
Y14539D01*
X9238Y3678D02*
Y4622D01*
X11718D01*
X9238Y3678D02*
X11718D01*
Y4622D01*
X9238Y5028D02*
Y5972D01*
X11718D01*
X9238Y5028D02*
X11718D01*
Y5972D01*
X9910Y13671D02*
X10812Y12770D01*
X9910D02*
Y15330D01*
X11290D01*
Y12770D02*
Y15330D01*
X9910Y12770D02*
X11290D01*
X17928Y18040D02*
X18872D01*
Y15560D02*
Y18040D01*
X17928Y15560D02*
Y18040D01*
Y15560D02*
X18872D01*
X18499Y3131D02*
X20901D01*
Y730D02*
Y3131D01*
X18499Y730D02*
X20901D01*
X18499D02*
Y3131D01*
Y6251D02*
X20901D01*
Y3849D02*
Y6251D01*
X18499Y3849D02*
X20901D01*
X18499D02*
Y6251D01*
M02*
