G04*
G04 #@! TF.GenerationSoftware,Altium Limited,Altium Designer,22.5.1 (42)*
G04*
G04 Layer_Color=16711935*
%FSLAX24Y24*%
%MOIN*%
G70*
G04*
G04 #@! TF.SameCoordinates,CA2130CD-DD2B-4D4C-96E1-355C1CFE4D94*
G04*
G04*
G04 #@! TF.FilePolarity,Positive*
G04*
G01*
G75*
%ADD12C,0.0039*%
%ADD46C,0.0157*%
D12*
X22343Y2367D02*
X22408D01*
X22375D01*
Y2564D01*
X22343Y2531D01*
X21765Y3673D02*
X21732Y3705D01*
X21667D01*
X21634Y3673D01*
Y3541D01*
X21667Y3509D01*
X21732D01*
X21765Y3541D01*
X21962Y3509D02*
X21831D01*
X21962Y3640D01*
Y3673D01*
X21929Y3705D01*
X21863D01*
X21831Y3673D01*
X22343Y5517D02*
X22408D01*
X22375D01*
Y5714D01*
X22343Y5681D01*
X21765Y6823D02*
X21732Y6855D01*
X21667D01*
X21634Y6823D01*
Y6691D01*
X21667Y6659D01*
X21732D01*
X21765Y6691D01*
X21831Y6659D02*
X21896D01*
X21863D01*
Y6855D01*
X21831Y6823D01*
D46*
X20225Y2586D02*
X20094Y2717D01*
X19831D01*
X19700Y2586D01*
Y2455D01*
X19831Y2324D01*
X20094D01*
X20225Y2193D01*
Y2062D01*
X20094Y1930D01*
X19831D01*
X19700Y2062D01*
X21012Y1930D02*
X20487D01*
X21012Y2455D01*
Y2586D01*
X20881Y2717D01*
X20618D01*
X20487Y2586D01*
X20225Y5706D02*
X20094Y5837D01*
X19831D01*
X19700Y5706D01*
Y5575D01*
X19831Y5444D01*
X20094D01*
X20225Y5312D01*
Y5181D01*
X20094Y5050D01*
X19831D01*
X19700Y5181D01*
X20487Y5050D02*
X20750D01*
X20618D01*
Y5837D01*
X20487Y5706D01*
M02*
