G04*
G04 #@! TF.GenerationSoftware,Altium Limited,Altium Designer,22.5.1 (42)*
G04*
G04 Layer_Color=8388736*
%FSLAX24Y24*%
%MOIN*%
G70*
G04*
G04 #@! TF.SameCoordinates,CA2130CD-DD2B-4D4C-96E1-355C1CFE4D94*
G04*
G04*
G04 #@! TF.FilePolarity,Negative*
G04*
G01*
G75*
%ADD14C,0.0907*%
%ADD15C,0.0789*%
G04:AMPARAMS|DCode=16|XSize=78.9mil|YSize=78.9mil|CornerRadius=12.9mil|HoleSize=0mil|Usage=FLASHONLY|Rotation=90.000|XOffset=0mil|YOffset=0mil|HoleType=Round|Shape=RoundedRectangle|*
%AMROUNDEDRECTD16*
21,1,0.0789,0.0531,0,0,90.0*
21,1,0.0531,0.0789,0,0,90.0*
1,1,0.0257,0.0266,0.0266*
1,1,0.0257,0.0266,-0.0266*
1,1,0.0257,-0.0266,-0.0266*
1,1,0.0257,-0.0266,0.0266*
%
%ADD16ROUNDEDRECTD16*%
%ADD17C,0.1261*%
%ADD18C,0.0513*%
%ADD19R,0.0513X0.0513*%
%ADD20R,0.0611X0.0611*%
%ADD21C,0.0867*%
%ADD22C,0.0611*%
%ADD23R,0.0582X0.0582*%
%ADD24C,0.0582*%
%ADD25R,0.0611X0.0611*%
%ADD26C,0.0840*%
D14*
X21550Y18542D02*
D03*
Y16400D02*
D03*
D15*
X23000Y2800D02*
D03*
X22000D02*
D03*
X1100Y15450D02*
D03*
Y16450D02*
D03*
Y17450D02*
D03*
Y10575D02*
D03*
Y11575D02*
D03*
Y12575D02*
D03*
Y5700D02*
D03*
Y6700D02*
D03*
Y7700D02*
D03*
X2800Y2200D02*
D03*
Y3200D02*
D03*
Y4200D02*
D03*
X22000Y5950D02*
D03*
X23000D02*
D03*
X16850Y10200D02*
D03*
Y9200D02*
D03*
Y8200D02*
D03*
Y7200D02*
D03*
Y3200D02*
D03*
Y4200D02*
D03*
Y5200D02*
D03*
Y6200D02*
D03*
Y15200D02*
D03*
Y14200D02*
D03*
Y13200D02*
D03*
Y12200D02*
D03*
Y11200D02*
D03*
Y2216D02*
D03*
X4100Y10200D02*
D03*
Y9200D02*
D03*
Y8200D02*
D03*
Y7200D02*
D03*
Y3200D02*
D03*
Y4200D02*
D03*
Y5200D02*
D03*
Y6200D02*
D03*
Y15200D02*
D03*
Y14200D02*
D03*
Y13200D02*
D03*
Y12200D02*
D03*
Y11200D02*
D03*
Y2216D02*
D03*
D16*
X1100Y14450D02*
D03*
Y9575D02*
D03*
Y4700D02*
D03*
X2800Y1200D02*
D03*
X16850Y16200D02*
D03*
X4100D02*
D03*
D17*
X984Y19094D02*
D03*
X22638Y984D02*
D03*
X984D02*
D03*
D18*
X18600Y13750D02*
D03*
X19600D02*
D03*
X20600D02*
D03*
X21600D02*
D03*
X22600D02*
D03*
Y7750D02*
D03*
X21600D02*
D03*
X20600D02*
D03*
X19600D02*
D03*
D19*
X18600D02*
D03*
D20*
X12250Y5500D02*
D03*
Y4150D02*
D03*
D21*
X18420Y2816D02*
D03*
X20980D02*
D03*
Y5936D02*
D03*
X18420D02*
D03*
Y1044D02*
D03*
X20980D02*
D03*
X18420Y4164D02*
D03*
X20980D02*
D03*
D22*
X8707Y4150D02*
D03*
Y5500D02*
D03*
X18400Y18572D02*
D03*
D23*
X12900Y16200D02*
D03*
X8300Y11900D02*
D03*
D24*
X12900Y17000D02*
D03*
X8300Y11100D02*
D03*
D25*
X18400Y15028D02*
D03*
D26*
X5450Y16200D02*
D03*
Y15200D02*
D03*
Y14200D02*
D03*
Y13200D02*
D03*
Y12200D02*
D03*
Y11200D02*
D03*
Y10200D02*
D03*
Y9200D02*
D03*
Y8200D02*
D03*
Y7200D02*
D03*
Y6200D02*
D03*
Y5200D02*
D03*
Y4200D02*
D03*
Y3200D02*
D03*
Y2200D02*
D03*
X15450Y16200D02*
D03*
Y15200D02*
D03*
Y14200D02*
D03*
Y13200D02*
D03*
Y12200D02*
D03*
Y11200D02*
D03*
Y10200D02*
D03*
Y9200D02*
D03*
Y8200D02*
D03*
Y7200D02*
D03*
Y6200D02*
D03*
Y5200D02*
D03*
Y4200D02*
D03*
Y3200D02*
D03*
Y2200D02*
D03*
M02*
