M48
;Layer_Color=9474304
;FILE_FORMAT=2:4
INCH
;TYPE=PLATED
T1F00S00C0.0276
T2F00S00C0.0335
T3F00S00C0.0354
T4F00S00C0.0394
T5F00S00C0.0551
T6F00S00C0.0787
%
T01
X021600Y007750
X022600
Y013750
X021600
X020600
X019600
X018600
Y007750
X019600
X020600
T02
X008707Y004150
Y005500
X012250
Y004150
X008300Y011100
Y011900
X012900Y016200
Y017000
X018400Y018572
Y015028
T03
X022000Y002800
X023000
Y005950
X022000
T04
X002800Y001200
Y002200
Y003200
Y004200
X004100
Y003200
Y002216
X005450Y002200
Y003200
Y004200
Y005200
X004100
X001100Y004700
X015450Y005200
Y004200
Y003200
Y002200
X016850Y002216
Y003200
Y004200
Y005200
X018420Y004164
Y002816
Y001044
X020980
Y002816
Y004164
Y005936
X018420
X016850Y006200
Y007200
Y008200
Y009200
Y010200
Y011200
Y012200
Y013200
Y014200
Y015200
Y016200
X015450
Y015200
Y014200
Y013200
Y012200
Y011200
Y010200
Y009200
Y008200
Y007200
Y006200
X005450
Y007200
Y008200
Y009200
Y010200
Y011200
Y012200
Y013200
Y014200
Y015200
Y016200
X004100
Y015200
Y014200
Y013200
Y012200
Y011200
Y010200
Y009200
Y008200
Y007200
Y006200
X001100Y005700
Y006700
Y007700
Y009575
Y010575
Y011575
Y012575
Y014450
Y015450
Y016450
Y017450
T05
X021550Y016400
Y018542
T06
X000984Y000984
X022638
X000984Y019094
M30
