G04*
G04 #@! TF.GenerationSoftware,Altium Limited,Altium Designer,22.5.1 (42)*
G04*
G04 Layer_Physical_Order=2*
G04 Layer_Color=16711680*
%FSLAX24Y24*%
%MOIN*%
G70*
G04*
G04 #@! TF.SameCoordinates,CA2130CD-DD2B-4D4C-96E1-355C1CFE4D94*
G04*
G04*
G04 #@! TF.FilePolarity,Positive*
G04*
G01*
G75*
%ADD10C,0.0197*%
%ADD27C,0.0827*%
%ADD28C,0.0709*%
G04:AMPARAMS|DCode=29|XSize=70.9mil|YSize=70.9mil|CornerRadius=8.9mil|HoleSize=0mil|Usage=FLASHONLY|Rotation=90.000|XOffset=0mil|YOffset=0mil|HoleType=Round|Shape=RoundedRectangle|*
%AMROUNDEDRECTD29*
21,1,0.0709,0.0531,0,0,90.0*
21,1,0.0531,0.0709,0,0,90.0*
1,1,0.0177,0.0266,0.0266*
1,1,0.0177,0.0266,-0.0266*
1,1,0.0177,-0.0266,-0.0266*
1,1,0.0177,-0.0266,0.0266*
%
%ADD29ROUNDEDRECTD29*%
%ADD30C,0.1181*%
%ADD31C,0.0433*%
%ADD32R,0.0433X0.0433*%
%ADD33R,0.0531X0.0531*%
%ADD34C,0.0787*%
%ADD35C,0.0531*%
%ADD36R,0.0502X0.0502*%
%ADD37C,0.0502*%
%ADD38R,0.0531X0.0531*%
%ADD39C,0.0760*%
%ADD40R,0.0512X0.1280*%
%ADD41R,0.0512X0.0374*%
%ADD42C,0.0394*%
G36*
X23622Y0D02*
X0D01*
Y3539D01*
X50Y3556D01*
X53Y3553D01*
X903Y2703D01*
X903Y2703D01*
X2362Y1243D01*
Y934D01*
X2375Y868D01*
X2413Y813D01*
X2468Y775D01*
X2534Y762D01*
X2843D01*
X2953Y653D01*
X3010Y608D01*
X3078Y580D01*
X3150Y571D01*
X6400D01*
X6472Y580D01*
X6540Y608D01*
X6597Y653D01*
X9497Y3553D01*
X9542Y3610D01*
X9570Y3678D01*
X9579Y3750D01*
Y4743D01*
Y6093D01*
Y10900D01*
X9579Y10900D01*
X9570Y10972D01*
X9542Y11040D01*
X9497Y11097D01*
X9497Y11097D01*
X8631Y11964D01*
Y12231D01*
X8579D01*
Y14242D01*
X8625Y14262D01*
X8945Y13942D01*
Y13783D01*
X9153D01*
X9160Y13780D01*
X9232Y13771D01*
X9281D01*
X9353Y13780D01*
X9360Y13783D01*
X9617D01*
Y14317D01*
X9360D01*
X9360Y14317D01*
X9038Y14638D01*
X9058Y14685D01*
X9202D01*
X9209Y14682D01*
X9281Y14672D01*
X9330D01*
X9403Y14682D01*
X9409Y14685D01*
X9617D01*
Y14843D01*
X10694Y15921D01*
X12569D01*
Y15869D01*
X13231D01*
Y15921D01*
X15084D01*
X15122Y15872D01*
X15218Y15798D01*
X15330Y15752D01*
X15450Y15736D01*
X15570Y15752D01*
X15682Y15798D01*
X15778Y15872D01*
X15816Y15921D01*
X16415D01*
X16425Y15868D01*
X16463Y15813D01*
X16518Y15775D01*
X16584Y15762D01*
X17116D01*
X17182Y15775D01*
X17237Y15813D01*
X17275Y15868D01*
X17285Y15921D01*
X19208D01*
X19281Y15930D01*
X19348Y15958D01*
X19406Y16003D01*
X21459Y18056D01*
X21550Y18044D01*
X21679Y18061D01*
X21799Y18111D01*
X21902Y18190D01*
X21981Y18293D01*
X22031Y18413D01*
X22048Y18542D01*
X22031Y18671D01*
X21981Y18791D01*
X21902Y18894D01*
X21799Y18973D01*
X21679Y19022D01*
X21550Y19039D01*
X21421Y19022D01*
X21301Y18973D01*
X21198Y18894D01*
X21119Y18791D01*
X21069Y18671D01*
X21052Y18542D01*
X21064Y18451D01*
X19093Y16479D01*
X17285D01*
X17275Y16532D01*
X17237Y16587D01*
X17182Y16625D01*
X17116Y16638D01*
X16584D01*
X16518Y16625D01*
X16463Y16587D01*
X16425Y16532D01*
X16415Y16479D01*
X15816D01*
X15778Y16528D01*
X15682Y16602D01*
X15570Y16648D01*
X15450Y16664D01*
X15330Y16648D01*
X15218Y16602D01*
X15122Y16528D01*
X15084Y16479D01*
X13231D01*
Y16531D01*
X12569D01*
Y16479D01*
X10579D01*
X10579Y16479D01*
X10506Y16470D01*
X10439Y16442D01*
X10381Y16397D01*
X10381Y16397D01*
X9203Y15219D01*
X9202Y15219D01*
X8945D01*
Y14797D01*
X8899Y14778D01*
X8579Y15098D01*
Y16284D01*
X10587Y18292D01*
X11850D01*
X18196Y18292D01*
X18226Y18270D01*
X18310Y18235D01*
X18400Y18223D01*
X18490Y18235D01*
X18574Y18270D01*
X18647Y18325D01*
X18702Y18397D01*
X18737Y18481D01*
X18749Y18572D01*
X18737Y18662D01*
X18702Y18746D01*
X18647Y18818D01*
X18574Y18874D01*
X18490Y18908D01*
X18400Y18920D01*
X18310Y18908D01*
X18226Y18874D01*
X18196Y18851D01*
X11850Y18851D01*
X10472D01*
X10399Y18841D01*
X10332Y18813D01*
X10274Y18769D01*
X8103Y16597D01*
X8058Y16540D01*
X8030Y16472D01*
X8021Y16400D01*
Y14982D01*
Y12231D01*
X7969D01*
Y11569D01*
X8236D01*
X8304Y11501D01*
X8283Y11452D01*
X8208Y11442D01*
X8123Y11407D01*
X8050Y11350D01*
X7993Y11277D01*
X7958Y11192D01*
X7953Y11150D01*
X8300D01*
Y11100D01*
X8350D01*
Y10753D01*
X8392Y10758D01*
X8477Y10793D01*
X8550Y10850D01*
X8607Y10923D01*
X8642Y11008D01*
X8652Y11083D01*
X8701Y11104D01*
X9021Y10784D01*
Y6209D01*
X8654Y5842D01*
X8616Y5837D01*
X8532Y5802D01*
X8460Y5747D01*
X8405Y5674D01*
X8370Y5590D01*
X8358Y5500D01*
X8370Y5410D01*
X8405Y5326D01*
X8460Y5253D01*
X8532Y5198D01*
X8616Y5163D01*
X8707Y5151D01*
X8797Y5163D01*
X8881Y5198D01*
X8953Y5253D01*
X8971Y5276D01*
X9021Y5259D01*
Y4859D01*
X8654Y4492D01*
X8616Y4487D01*
X8532Y4452D01*
X8460Y4397D01*
X8405Y4324D01*
X8370Y4240D01*
X8358Y4150D01*
X8370Y4060D01*
X8405Y3976D01*
X8460Y3903D01*
X8532Y3848D01*
X8616Y3813D01*
X8707Y3801D01*
X8797Y3813D01*
X8881Y3848D01*
X8953Y3903D01*
X8967Y3921D01*
X9013Y3905D01*
X9018Y3863D01*
X6284Y1129D01*
X3266D01*
X3238Y1157D01*
Y1466D01*
X3225Y1532D01*
X3187Y1587D01*
X3132Y1625D01*
X3066Y1638D01*
X2757D01*
X2689Y1706D01*
X2712Y1753D01*
X2750Y1748D01*
Y2150D01*
X2348D01*
X2353Y2112D01*
X2306Y2089D01*
X1379Y3016D01*
Y4265D01*
X1432Y4275D01*
X1487Y4313D01*
X1525Y4368D01*
X1538Y4434D01*
Y4966D01*
X1525Y5032D01*
X1487Y5087D01*
X1432Y5125D01*
X1366Y5138D01*
X834D01*
X768Y5125D01*
X713Y5087D01*
X675Y5032D01*
X662Y4966D01*
Y4434D01*
X675Y4368D01*
X713Y4313D01*
X768Y4275D01*
X821Y4265D01*
Y3639D01*
X775Y3620D01*
X529Y3866D01*
Y8609D01*
X1057Y9137D01*
X1366D01*
X1432Y9150D01*
X1487Y9188D01*
X1525Y9243D01*
X1538Y9309D01*
Y9841D01*
X1525Y9907D01*
X1487Y9962D01*
X1432Y10000D01*
X1366Y10013D01*
X834D01*
X768Y10000D01*
X713Y9962D01*
X675Y9907D01*
X662Y9841D01*
Y9532D01*
X575Y9445D01*
X529Y9464D01*
Y13484D01*
X1057Y14012D01*
X1366D01*
X1432Y14025D01*
X1487Y14063D01*
X1525Y14118D01*
X1538Y14184D01*
Y14716D01*
X1525Y14782D01*
X1487Y14837D01*
X1432Y14875D01*
X1366Y14888D01*
X834D01*
X768Y14875D01*
X713Y14837D01*
X675Y14782D01*
X662Y14716D01*
Y14407D01*
X53Y13797D01*
X50Y13794D01*
X0Y13811D01*
Y20079D01*
X23622D01*
Y0D01*
D02*
G37*
%LPC*%
G36*
X984Y19768D02*
X853Y19755D01*
X726Y19717D01*
X610Y19655D01*
X508Y19571D01*
X424Y19469D01*
X362Y19352D01*
X323Y19226D01*
X310Y19094D01*
X323Y18963D01*
X362Y18837D01*
X424Y18720D01*
X508Y18618D01*
X610Y18534D01*
X726Y18472D01*
X853Y18434D01*
X984Y18421D01*
X1116Y18434D01*
X1242Y18472D01*
X1359Y18534D01*
X1461Y18618D01*
X1544Y18720D01*
X1607Y18837D01*
X1645Y18963D01*
X1658Y19094D01*
X1645Y19226D01*
X1607Y19352D01*
X1544Y19469D01*
X1461Y19571D01*
X1359Y19655D01*
X1242Y19717D01*
X1116Y19755D01*
X984Y19768D01*
D02*
G37*
G36*
X1150Y17902D02*
Y17500D01*
X1552D01*
X1543Y17569D01*
X1497Y17679D01*
X1424Y17774D01*
X1329Y17847D01*
X1219Y17893D01*
X1150Y17902D01*
D02*
G37*
G36*
X1050D02*
X981Y17893D01*
X871Y17847D01*
X776Y17774D01*
X703Y17679D01*
X657Y17569D01*
X648Y17500D01*
X1050D01*
Y17902D01*
D02*
G37*
G36*
X12950Y17347D02*
Y17050D01*
X13247D01*
X13242Y17092D01*
X13207Y17177D01*
X13150Y17250D01*
X13077Y17307D01*
X12992Y17342D01*
X12950Y17347D01*
D02*
G37*
G36*
X12850D02*
X12808Y17342D01*
X12723Y17307D01*
X12650Y17250D01*
X12593Y17177D01*
X12558Y17092D01*
X12553Y17050D01*
X12850D01*
Y17347D01*
D02*
G37*
G36*
X1552Y17400D02*
X1150D01*
Y16998D01*
X1219Y17007D01*
X1329Y17053D01*
X1424Y17126D01*
X1497Y17221D01*
X1543Y17331D01*
X1552Y17400D01*
D02*
G37*
G36*
X1050D02*
X648D01*
X657Y17331D01*
X703Y17221D01*
X776Y17126D01*
X871Y17053D01*
X981Y17007D01*
X1050Y16998D01*
Y17400D01*
D02*
G37*
G36*
X13247Y16950D02*
X12950D01*
Y16653D01*
X12992Y16658D01*
X13077Y16693D01*
X13150Y16750D01*
X13207Y16823D01*
X13242Y16908D01*
X13247Y16950D01*
D02*
G37*
G36*
X12850D02*
X12553D01*
X12558Y16908D01*
X12593Y16823D01*
X12650Y16750D01*
X12723Y16693D01*
X12808Y16658D01*
X12850Y16653D01*
Y16950D01*
D02*
G37*
G36*
X5450Y16664D02*
X5330Y16648D01*
X5218Y16602D01*
X5122Y16528D01*
X5084Y16479D01*
X4535D01*
X4525Y16532D01*
X4487Y16587D01*
X4432Y16625D01*
X4366Y16638D01*
X3834D01*
X3768Y16625D01*
X3713Y16587D01*
X3675Y16532D01*
X3662Y16466D01*
Y15934D01*
X3675Y15868D01*
X3713Y15813D01*
X3768Y15775D01*
X3834Y15762D01*
X4366D01*
X4432Y15775D01*
X4487Y15813D01*
X4525Y15868D01*
X4535Y15921D01*
X5084D01*
X5122Y15872D01*
X5218Y15798D01*
X5330Y15752D01*
X5450Y15736D01*
X5570Y15752D01*
X5682Y15798D01*
X5778Y15872D01*
X5852Y15968D01*
X5898Y16080D01*
X5914Y16200D01*
X5898Y16320D01*
X5852Y16432D01*
X5778Y16528D01*
X5682Y16602D01*
X5570Y16648D01*
X5450Y16664D01*
D02*
G37*
G36*
X21600Y16911D02*
Y16450D01*
X22061D01*
X22050Y16534D01*
X21998Y16659D01*
X21916Y16766D01*
X21809Y16848D01*
X21684Y16900D01*
X21600Y16911D01*
D02*
G37*
G36*
X21500D02*
X21416Y16900D01*
X21291Y16848D01*
X21184Y16766D01*
X21102Y16659D01*
X21050Y16534D01*
X21039Y16450D01*
X21500D01*
Y16911D01*
D02*
G37*
G36*
X22061Y16350D02*
X21600D01*
Y15889D01*
X21684Y15900D01*
X21809Y15952D01*
X21916Y16034D01*
X21998Y16141D01*
X22050Y16266D01*
X22061Y16350D01*
D02*
G37*
G36*
X21500D02*
X21039D01*
X21050Y16266D01*
X21102Y16141D01*
X21184Y16034D01*
X21291Y15952D01*
X21416Y15900D01*
X21500Y15889D01*
Y16350D01*
D02*
G37*
G36*
X5500Y15678D02*
Y15250D01*
X5928D01*
X5918Y15325D01*
X5869Y15442D01*
X5792Y15542D01*
X5692Y15619D01*
X5575Y15668D01*
X5500Y15678D01*
D02*
G37*
G36*
X4150Y15652D02*
Y15250D01*
X4552D01*
X4543Y15319D01*
X4497Y15429D01*
X4424Y15524D01*
X4329Y15597D01*
X4219Y15643D01*
X4150Y15652D01*
D02*
G37*
G36*
X16900D02*
Y15250D01*
X17302D01*
X17293Y15319D01*
X17247Y15429D01*
X17174Y15524D01*
X17079Y15597D01*
X16969Y15643D01*
X16900Y15652D01*
D02*
G37*
G36*
X15500Y15678D02*
Y15250D01*
X15928D01*
X15918Y15325D01*
X15869Y15442D01*
X15792Y15542D01*
X15692Y15619D01*
X15575Y15668D01*
X15500Y15678D01*
D02*
G37*
G36*
X16800Y15652D02*
X16731Y15643D01*
X16621Y15597D01*
X16526Y15524D01*
X16453Y15429D01*
X16407Y15319D01*
X16398Y15250D01*
X16800D01*
Y15652D01*
D02*
G37*
G36*
X4050D02*
X3981Y15643D01*
X3871Y15597D01*
X3776Y15524D01*
X3703Y15429D01*
X3657Y15319D01*
X3648Y15250D01*
X4050D01*
Y15652D01*
D02*
G37*
G36*
X5400Y15678D02*
X5325Y15668D01*
X5208Y15619D01*
X5108Y15542D01*
X5031Y15442D01*
X4982Y15325D01*
X4972Y15250D01*
X5400D01*
Y15678D01*
D02*
G37*
G36*
X15400D02*
X15325Y15668D01*
X15208Y15619D01*
X15108Y15542D01*
X15031Y15442D01*
X14982Y15325D01*
X14972Y15250D01*
X15400D01*
Y15678D01*
D02*
G37*
G36*
X17302Y15150D02*
X16900D01*
Y14748D01*
X16969Y14757D01*
X17079Y14803D01*
X17174Y14876D01*
X17247Y14971D01*
X17293Y15081D01*
X17302Y15150D01*
D02*
G37*
G36*
X4552D02*
X4150D01*
Y14748D01*
X4219Y14757D01*
X4329Y14803D01*
X4424Y14876D01*
X4497Y14971D01*
X4543Y15081D01*
X4552Y15150D01*
D02*
G37*
G36*
X16800D02*
X16398D01*
X16407Y15081D01*
X16453Y14971D01*
X16526Y14876D01*
X16621Y14803D01*
X16731Y14757D01*
X16800Y14748D01*
Y15150D01*
D02*
G37*
G36*
X4050D02*
X3648D01*
X3657Y15081D01*
X3703Y14971D01*
X3776Y14876D01*
X3871Y14803D01*
X3981Y14757D01*
X4050Y14748D01*
Y15150D01*
D02*
G37*
G36*
X15928D02*
X15500D01*
Y14722D01*
X15575Y14732D01*
X15692Y14781D01*
X15792Y14858D01*
X15869Y14958D01*
X15918Y15075D01*
X15928Y15150D01*
D02*
G37*
G36*
X5928D02*
X5500D01*
Y14722D01*
X5575Y14732D01*
X5692Y14781D01*
X5792Y14858D01*
X5869Y14958D01*
X5918Y15075D01*
X5928Y15150D01*
D02*
G37*
G36*
X15400D02*
X14972D01*
X14982Y15075D01*
X15031Y14958D01*
X15108Y14858D01*
X15208Y14781D01*
X15325Y14732D01*
X15400Y14722D01*
Y15150D01*
D02*
G37*
G36*
X5400D02*
X4972D01*
X4982Y15075D01*
X5031Y14958D01*
X5108Y14858D01*
X5208Y14781D01*
X5325Y14732D01*
X5400Y14722D01*
Y15150D01*
D02*
G37*
G36*
X18746Y15374D02*
X18054D01*
Y14683D01*
X18488D01*
X18900Y14271D01*
X18900Y14271D01*
X18959Y14232D01*
X19028Y14218D01*
X19875D01*
X20306Y13787D01*
X20301Y13750D01*
X20311Y13673D01*
X20341Y13600D01*
X20389Y13539D01*
X20450Y13491D01*
X20523Y13461D01*
X20600Y13451D01*
X20677Y13461D01*
X20750Y13491D01*
X20811Y13539D01*
X20859Y13600D01*
X20889Y13673D01*
X20899Y13750D01*
X20889Y13827D01*
X20859Y13900D01*
X20811Y13961D01*
X20750Y14009D01*
X20677Y14039D01*
X20600Y14049D01*
X20563Y14044D01*
X20435Y14172D01*
X20455Y14218D01*
X22675D01*
X22918Y13975D01*
Y13888D01*
X22868Y13878D01*
X22859Y13900D01*
X22811Y13961D01*
X22750Y14009D01*
X22677Y14039D01*
X22600Y14049D01*
X22523Y14039D01*
X22450Y14009D01*
X22389Y13961D01*
X22341Y13900D01*
X22311Y13827D01*
X22301Y13750D01*
X22306Y13713D01*
X18975Y10382D01*
X17245D01*
X17229Y10419D01*
X17160Y10510D01*
X17069Y10579D01*
X16963Y10623D01*
X16850Y10638D01*
X16737Y10623D01*
X16631Y10579D01*
X16540Y10510D01*
X16471Y10419D01*
X16455Y10382D01*
X15873D01*
X15852Y10432D01*
X15778Y10528D01*
X15682Y10602D01*
X15570Y10648D01*
X15450Y10664D01*
X15330Y10648D01*
X15218Y10602D01*
X15122Y10528D01*
X15048Y10432D01*
X15002Y10320D01*
X14986Y10200D01*
X15002Y10080D01*
X15048Y9968D01*
X15122Y9872D01*
X15218Y9798D01*
X15330Y9752D01*
X15450Y9736D01*
X15570Y9752D01*
X15682Y9798D01*
X15778Y9872D01*
X15852Y9968D01*
X15873Y10018D01*
X16455D01*
X16471Y9981D01*
X16540Y9890D01*
X16631Y9821D01*
X16737Y9777D01*
X16850Y9762D01*
X16963Y9777D01*
X17069Y9821D01*
X17160Y9890D01*
X17229Y9981D01*
X17245Y10018D01*
X19050D01*
X19050Y10018D01*
X19120Y10032D01*
X19179Y10071D01*
X22563Y13456D01*
X22600Y13451D01*
X22677Y13461D01*
X22750Y13491D01*
X22811Y13539D01*
X22859Y13600D01*
X22868Y13622D01*
X22918Y13612D01*
Y7888D01*
X22868Y7878D01*
X22859Y7900D01*
X22811Y7961D01*
X22750Y8009D01*
X22677Y8039D01*
X22600Y8049D01*
X22523Y8039D01*
X22450Y8009D01*
X22389Y7961D01*
X22341Y7900D01*
X22311Y7827D01*
X22301Y7750D01*
X22311Y7673D01*
X22341Y7600D01*
X22389Y7539D01*
X22450Y7491D01*
X22472Y7482D01*
X22462Y7432D01*
X21738D01*
X21728Y7482D01*
X21750Y7491D01*
X21811Y7539D01*
X21859Y7600D01*
X21889Y7673D01*
X21899Y7750D01*
X21889Y7827D01*
X21859Y7900D01*
X21811Y7961D01*
X21750Y8009D01*
X21677Y8039D01*
X21600Y8049D01*
X21563Y8044D01*
X20279Y9329D01*
X20220Y9368D01*
X20150Y9382D01*
X20150Y9382D01*
X17245D01*
X17229Y9419D01*
X17160Y9510D01*
X17069Y9579D01*
X16963Y9623D01*
X16850Y9638D01*
X16737Y9623D01*
X16631Y9579D01*
X16540Y9510D01*
X16471Y9419D01*
X16455Y9382D01*
X15873D01*
X15852Y9432D01*
X15778Y9528D01*
X15682Y9602D01*
X15570Y9648D01*
X15450Y9664D01*
X15330Y9648D01*
X15218Y9602D01*
X15122Y9528D01*
X15048Y9432D01*
X15002Y9320D01*
X14986Y9200D01*
X15002Y9080D01*
X15048Y8968D01*
X15122Y8872D01*
X15218Y8798D01*
X15330Y8752D01*
X15450Y8736D01*
X15570Y8752D01*
X15682Y8798D01*
X15778Y8872D01*
X15852Y8968D01*
X15873Y9018D01*
X16455D01*
X16471Y8981D01*
X16540Y8890D01*
X16631Y8821D01*
X16737Y8777D01*
X16850Y8762D01*
X16963Y8777D01*
X17069Y8821D01*
X17160Y8890D01*
X17229Y8981D01*
X17245Y9018D01*
X20075D01*
X21306Y7787D01*
X21301Y7750D01*
X21311Y7673D01*
X21341Y7600D01*
X21389Y7539D01*
X21450Y7491D01*
X21472Y7482D01*
X21462Y7432D01*
X21175D01*
X20894Y7713D01*
X20899Y7750D01*
X20889Y7827D01*
X20859Y7900D01*
X20811Y7961D01*
X20750Y8009D01*
X20677Y8039D01*
X20600Y8049D01*
X20523Y8039D01*
X20450Y8009D01*
X20389Y7961D01*
X20341Y7900D01*
X20311Y7827D01*
X20301Y7750D01*
X20311Y7673D01*
X20341Y7600D01*
X20389Y7539D01*
X20450Y7491D01*
X20523Y7461D01*
X20600Y7451D01*
X20637Y7456D01*
X20971Y7121D01*
X20971Y7121D01*
X21030Y7082D01*
X21100Y7068D01*
X21100Y7068D01*
X22700D01*
X22700Y7068D01*
X22770Y7082D01*
X22829Y7121D01*
X23229Y7521D01*
X23229Y7521D01*
X23268Y7580D01*
X23282Y7650D01*
Y14050D01*
X23282Y14050D01*
X23268Y14120D01*
X23229Y14179D01*
X23229Y14179D01*
X22879Y14529D01*
X22820Y14568D01*
X22750Y14582D01*
X22750Y14582D01*
X19950D01*
X19950Y14582D01*
X19950Y14582D01*
X19104D01*
X18746Y14940D01*
Y15374D01*
D02*
G37*
G36*
X1100Y16888D02*
X987Y16873D01*
X881Y16829D01*
X790Y16760D01*
X721Y16669D01*
X677Y16563D01*
X662Y16450D01*
X677Y16337D01*
X721Y16231D01*
X790Y16140D01*
X881Y16071D01*
X987Y16027D01*
X1100Y16012D01*
X1213Y16027D01*
X1319Y16071D01*
X1410Y16140D01*
X1479Y16230D01*
X1813D01*
X3692Y14351D01*
X3677Y14313D01*
X3662Y14200D01*
X3677Y14087D01*
X3721Y13981D01*
X3790Y13890D01*
X3881Y13821D01*
X3987Y13777D01*
X4100Y13762D01*
X4213Y13777D01*
X4319Y13821D01*
X4410Y13890D01*
X4479Y13981D01*
X4495Y14018D01*
X5027D01*
X5048Y13968D01*
X5122Y13872D01*
X5218Y13798D01*
X5330Y13752D01*
X5450Y13736D01*
X5570Y13752D01*
X5682Y13798D01*
X5778Y13872D01*
X5852Y13968D01*
X5898Y14080D01*
X5914Y14200D01*
X5898Y14320D01*
X5852Y14432D01*
X5778Y14528D01*
X5682Y14602D01*
X5570Y14648D01*
X5450Y14664D01*
X5330Y14648D01*
X5218Y14602D01*
X5122Y14528D01*
X5048Y14432D01*
X5027Y14382D01*
X4495D01*
X4479Y14419D01*
X4410Y14510D01*
X4319Y14579D01*
X4213Y14623D01*
X4100Y14638D01*
X3987Y14623D01*
X3950Y14608D01*
X2017Y16541D01*
X1958Y16580D01*
X1888Y16594D01*
X1888Y16594D01*
X1511D01*
X1479Y16669D01*
X1410Y16760D01*
X1319Y16829D01*
X1213Y16873D01*
X1100Y16888D01*
D02*
G37*
G36*
X21600Y14049D02*
X21523Y14039D01*
X21450Y14009D01*
X21389Y13961D01*
X21341Y13900D01*
X21311Y13827D01*
X21301Y13750D01*
X21306Y13713D01*
X18975Y11382D01*
X17245D01*
X17229Y11419D01*
X17160Y11510D01*
X17069Y11579D01*
X16963Y11623D01*
X16850Y11638D01*
X16737Y11623D01*
X16631Y11579D01*
X16540Y11510D01*
X16471Y11419D01*
X16455Y11382D01*
X15873D01*
X15852Y11432D01*
X15778Y11528D01*
X15682Y11602D01*
X15570Y11648D01*
X15450Y11664D01*
X15330Y11648D01*
X15218Y11602D01*
X15122Y11528D01*
X15048Y11432D01*
X15002Y11320D01*
X14986Y11200D01*
X15002Y11080D01*
X15048Y10968D01*
X15122Y10872D01*
X15218Y10798D01*
X15330Y10752D01*
X15450Y10736D01*
X15570Y10752D01*
X15682Y10798D01*
X15778Y10872D01*
X15852Y10968D01*
X15873Y11018D01*
X16455D01*
X16471Y10981D01*
X16540Y10890D01*
X16631Y10821D01*
X16737Y10777D01*
X16850Y10762D01*
X16963Y10777D01*
X17069Y10821D01*
X17160Y10890D01*
X17229Y10981D01*
X17245Y11018D01*
X19050D01*
X19050Y11018D01*
X19120Y11032D01*
X19179Y11071D01*
X21563Y13456D01*
X21600Y13451D01*
X21677Y13461D01*
X21750Y13491D01*
X21811Y13539D01*
X21859Y13600D01*
X21889Y13673D01*
X21899Y13750D01*
X21889Y13827D01*
X21859Y13900D01*
X21811Y13961D01*
X21750Y14009D01*
X21677Y14039D01*
X21600Y14049D01*
D02*
G37*
G36*
X19600D02*
X19523Y14039D01*
X19450Y14009D01*
X19389Y13961D01*
X19341Y13900D01*
X19311Y13827D01*
X19301Y13750D01*
X19306Y13713D01*
X17975Y12382D01*
X17245D01*
X17229Y12419D01*
X17160Y12510D01*
X17069Y12579D01*
X16963Y12623D01*
X16850Y12638D01*
X16737Y12623D01*
X16631Y12579D01*
X16540Y12510D01*
X16471Y12419D01*
X16455Y12382D01*
X15873D01*
X15852Y12432D01*
X15778Y12528D01*
X15682Y12602D01*
X15570Y12648D01*
X15450Y12664D01*
X15330Y12648D01*
X15218Y12602D01*
X15122Y12528D01*
X15048Y12432D01*
X15002Y12320D01*
X14986Y12200D01*
X15002Y12080D01*
X15048Y11968D01*
X15122Y11872D01*
X15218Y11798D01*
X15330Y11752D01*
X15450Y11736D01*
X15570Y11752D01*
X15682Y11798D01*
X15778Y11872D01*
X15852Y11968D01*
X15873Y12018D01*
X16455D01*
X16471Y11981D01*
X16540Y11890D01*
X16631Y11821D01*
X16737Y11777D01*
X16850Y11762D01*
X16963Y11777D01*
X17069Y11821D01*
X17160Y11890D01*
X17229Y11981D01*
X17245Y12018D01*
X18050D01*
X18050Y12018D01*
X18120Y12032D01*
X18179Y12071D01*
X19563Y13456D01*
X19600Y13451D01*
X19677Y13461D01*
X19750Y13491D01*
X19811Y13539D01*
X19859Y13600D01*
X19889Y13673D01*
X19899Y13750D01*
X19889Y13827D01*
X19859Y13900D01*
X19811Y13961D01*
X19750Y14009D01*
X19677Y14039D01*
X19600Y14049D01*
D02*
G37*
G36*
X15450Y14664D02*
X15330Y14648D01*
X15218Y14602D01*
X15122Y14528D01*
X15048Y14432D01*
X15002Y14320D01*
X14986Y14200D01*
X15002Y14080D01*
X15048Y13968D01*
X15122Y13872D01*
X15218Y13798D01*
X15330Y13752D01*
X15450Y13736D01*
X15570Y13752D01*
X15682Y13798D01*
X15778Y13872D01*
X15852Y13968D01*
X15873Y14018D01*
X16455D01*
X16471Y13981D01*
X16540Y13890D01*
X16631Y13821D01*
X16737Y13777D01*
X16850Y13762D01*
X16963Y13777D01*
X17069Y13821D01*
X17160Y13890D01*
X17229Y13981D01*
X17245Y14018D01*
X18075D01*
X18306Y13787D01*
X18301Y13750D01*
X18311Y13673D01*
X18341Y13600D01*
X18389Y13539D01*
X18450Y13491D01*
X18523Y13461D01*
X18600Y13451D01*
X18677Y13461D01*
X18750Y13491D01*
X18811Y13539D01*
X18859Y13600D01*
X18889Y13673D01*
X18899Y13750D01*
X18889Y13827D01*
X18859Y13900D01*
X18811Y13961D01*
X18750Y14009D01*
X18677Y14039D01*
X18600Y14049D01*
X18563Y14044D01*
X18279Y14329D01*
X18220Y14368D01*
X18150Y14382D01*
X18150Y14382D01*
X17245D01*
X17229Y14419D01*
X17160Y14510D01*
X17069Y14579D01*
X16963Y14623D01*
X16850Y14638D01*
X16737Y14623D01*
X16631Y14579D01*
X16540Y14510D01*
X16471Y14419D01*
X16455Y14382D01*
X15873D01*
X15852Y14432D01*
X15778Y14528D01*
X15682Y14602D01*
X15570Y14648D01*
X15450Y14664D01*
D02*
G37*
G36*
X12255Y14770D02*
X11583D01*
Y13330D01*
X12255D01*
Y14770D01*
D02*
G37*
G36*
X9637Y13435D02*
X9331D01*
Y13198D01*
X9637D01*
Y13435D01*
D02*
G37*
G36*
X9231D02*
X8925D01*
Y13198D01*
X9231D01*
Y13435D01*
D02*
G37*
G36*
X9637Y13098D02*
X9331D01*
Y12861D01*
X9637D01*
Y13098D01*
D02*
G37*
G36*
X9231D02*
X8925D01*
Y12861D01*
X9231D01*
Y13098D01*
D02*
G37*
G36*
X15450Y13664D02*
X15330Y13648D01*
X15218Y13602D01*
X15122Y13528D01*
X15048Y13432D01*
X15002Y13320D01*
X14986Y13200D01*
X15002Y13080D01*
X15048Y12968D01*
X15122Y12872D01*
X15218Y12798D01*
X15330Y12752D01*
X15450Y12736D01*
X15570Y12752D01*
X15682Y12798D01*
X15778Y12872D01*
X15852Y12968D01*
X15873Y13018D01*
X16455D01*
X16471Y12981D01*
X16540Y12890D01*
X16631Y12821D01*
X16737Y12777D01*
X16850Y12762D01*
X16963Y12777D01*
X17069Y12821D01*
X17160Y12890D01*
X17229Y12981D01*
X17273Y13087D01*
X17288Y13200D01*
X17273Y13313D01*
X17229Y13419D01*
X17160Y13510D01*
X17069Y13579D01*
X16963Y13623D01*
X16850Y13638D01*
X16737Y13623D01*
X16631Y13579D01*
X16540Y13510D01*
X16471Y13419D01*
X16455Y13382D01*
X15873D01*
X15852Y13432D01*
X15778Y13528D01*
X15682Y13602D01*
X15570Y13648D01*
X15450Y13664D01*
D02*
G37*
G36*
X1100Y15888D02*
X987Y15873D01*
X881Y15829D01*
X790Y15760D01*
X721Y15669D01*
X677Y15563D01*
X662Y15450D01*
X677Y15337D01*
X721Y15231D01*
X790Y15140D01*
X881Y15071D01*
X987Y15027D01*
X1100Y15012D01*
X1213Y15027D01*
X1319Y15071D01*
X1410Y15140D01*
X1479Y15231D01*
X1495Y15268D01*
X1825D01*
X3268Y13825D01*
Y12850D01*
X3268Y12850D01*
X3282Y12780D01*
X3321Y12721D01*
X3692Y12350D01*
X3677Y12313D01*
X3662Y12200D01*
X3677Y12087D01*
X3721Y11981D01*
X3790Y11890D01*
X3881Y11821D01*
X3987Y11777D01*
X4100Y11762D01*
X4213Y11777D01*
X4319Y11821D01*
X4410Y11890D01*
X4479Y11981D01*
X4495Y12018D01*
X5027D01*
X5048Y11968D01*
X5122Y11872D01*
X5218Y11798D01*
X5330Y11752D01*
X5450Y11736D01*
X5570Y11752D01*
X5682Y11798D01*
X5778Y11872D01*
X5852Y11968D01*
X5898Y12080D01*
X5914Y12200D01*
X5898Y12320D01*
X5852Y12432D01*
X5778Y12528D01*
X5682Y12602D01*
X5570Y12648D01*
X5450Y12664D01*
X5330Y12648D01*
X5218Y12602D01*
X5122Y12528D01*
X5048Y12432D01*
X5027Y12382D01*
X4495D01*
X4479Y12419D01*
X4410Y12510D01*
X4319Y12579D01*
X4213Y12623D01*
X4100Y12638D01*
X3987Y12623D01*
X3950Y12608D01*
X3632Y12925D01*
Y13064D01*
X3682Y13074D01*
X3721Y12981D01*
X3790Y12890D01*
X3881Y12821D01*
X3987Y12777D01*
X4100Y12762D01*
X4213Y12777D01*
X4319Y12821D01*
X4410Y12890D01*
X4479Y12981D01*
X4495Y13018D01*
X5027D01*
X5048Y12968D01*
X5122Y12872D01*
X5218Y12798D01*
X5330Y12752D01*
X5450Y12736D01*
X5570Y12752D01*
X5682Y12798D01*
X5778Y12872D01*
X5852Y12968D01*
X5898Y13080D01*
X5914Y13200D01*
X5898Y13320D01*
X5852Y13432D01*
X5778Y13528D01*
X5682Y13602D01*
X5570Y13648D01*
X5450Y13664D01*
X5330Y13648D01*
X5218Y13602D01*
X5122Y13528D01*
X5048Y13432D01*
X5027Y13382D01*
X4495D01*
X4479Y13419D01*
X4410Y13510D01*
X4319Y13579D01*
X4213Y13623D01*
X4100Y13638D01*
X3987Y13623D01*
X3881Y13579D01*
X3790Y13510D01*
X3721Y13419D01*
X3682Y13326D01*
X3632Y13336D01*
Y13900D01*
X3632Y13900D01*
X3618Y13970D01*
X3579Y14029D01*
X2029Y15579D01*
X1970Y15618D01*
X1900Y15632D01*
X1900Y15632D01*
X1495D01*
X1479Y15669D01*
X1410Y15760D01*
X1319Y15829D01*
X1213Y15873D01*
X1100Y15888D01*
D02*
G37*
G36*
X1150Y13027D02*
Y12625D01*
X1552D01*
X1543Y12694D01*
X1497Y12804D01*
X1424Y12899D01*
X1329Y12972D01*
X1219Y13018D01*
X1150Y13027D01*
D02*
G37*
G36*
X1050D02*
X981Y13018D01*
X871Y12972D01*
X776Y12899D01*
X703Y12804D01*
X657Y12694D01*
X648Y12625D01*
X1050D01*
Y13027D01*
D02*
G37*
G36*
X1552Y12525D02*
X1150D01*
Y12123D01*
X1219Y12132D01*
X1329Y12178D01*
X1424Y12251D01*
X1497Y12346D01*
X1543Y12456D01*
X1552Y12525D01*
D02*
G37*
G36*
X1050D02*
X648D01*
X657Y12456D01*
X703Y12346D01*
X776Y12251D01*
X871Y12178D01*
X981Y12132D01*
X1050Y12123D01*
Y12525D01*
D02*
G37*
G36*
X8250Y11050D02*
X7953D01*
X7958Y11008D01*
X7993Y10923D01*
X8050Y10850D01*
X8123Y10793D01*
X8208Y10758D01*
X8250Y10753D01*
Y11050D01*
D02*
G37*
G36*
X1100Y12013D02*
X987Y11998D01*
X881Y11954D01*
X790Y11885D01*
X721Y11794D01*
X677Y11688D01*
X662Y11575D01*
X677Y11462D01*
X721Y11356D01*
X790Y11265D01*
X881Y11196D01*
X987Y11152D01*
X1100Y11137D01*
X1213Y11152D01*
X1319Y11196D01*
X1410Y11265D01*
X1479Y11356D01*
X1495Y11393D01*
X3511D01*
X3667Y11237D01*
X3662Y11200D01*
X3677Y11087D01*
X3721Y10981D01*
X3790Y10890D01*
X3881Y10821D01*
X3987Y10777D01*
X4100Y10762D01*
X4213Y10777D01*
X4319Y10821D01*
X4410Y10890D01*
X4479Y10981D01*
X4495Y11018D01*
X5027D01*
X5048Y10968D01*
X5122Y10872D01*
X5218Y10798D01*
X5330Y10752D01*
X5450Y10736D01*
X5570Y10752D01*
X5682Y10798D01*
X5778Y10872D01*
X5852Y10968D01*
X5898Y11080D01*
X5914Y11200D01*
X5898Y11320D01*
X5852Y11432D01*
X5778Y11528D01*
X5682Y11602D01*
X5570Y11648D01*
X5450Y11664D01*
X5330Y11648D01*
X5218Y11602D01*
X5122Y11528D01*
X5048Y11432D01*
X5027Y11382D01*
X4495D01*
X4479Y11419D01*
X4410Y11510D01*
X4319Y11579D01*
X4213Y11623D01*
X4100Y11638D01*
X3987Y11623D01*
X3881Y11579D01*
X3857Y11561D01*
X3715Y11704D01*
X3656Y11743D01*
X3586Y11757D01*
X3586Y11757D01*
X1495D01*
X1479Y11794D01*
X1410Y11885D01*
X1319Y11954D01*
X1213Y11998D01*
X1100Y12013D01*
D02*
G37*
G36*
Y11013D02*
X987Y10998D01*
X881Y10954D01*
X790Y10885D01*
X721Y10794D01*
X677Y10688D01*
X662Y10575D01*
X677Y10462D01*
X721Y10356D01*
X790Y10265D01*
X881Y10196D01*
X987Y10152D01*
X1100Y10137D01*
X1213Y10152D01*
X1319Y10196D01*
X1410Y10265D01*
X1479Y10356D01*
X1495Y10393D01*
X3511D01*
X3667Y10237D01*
X3662Y10200D01*
X3677Y10087D01*
X3721Y9981D01*
X3790Y9890D01*
X3881Y9821D01*
X3987Y9777D01*
X4100Y9762D01*
X4213Y9777D01*
X4319Y9821D01*
X4410Y9890D01*
X4479Y9981D01*
X4495Y10018D01*
X5027D01*
X5048Y9968D01*
X5122Y9872D01*
X5218Y9798D01*
X5330Y9752D01*
X5450Y9736D01*
X5570Y9752D01*
X5682Y9798D01*
X5778Y9872D01*
X5852Y9968D01*
X5898Y10080D01*
X5914Y10200D01*
X5898Y10320D01*
X5852Y10432D01*
X5778Y10528D01*
X5682Y10602D01*
X5570Y10648D01*
X5450Y10664D01*
X5330Y10648D01*
X5218Y10602D01*
X5122Y10528D01*
X5048Y10432D01*
X5027Y10382D01*
X4495D01*
X4479Y10419D01*
X4410Y10510D01*
X4319Y10579D01*
X4213Y10623D01*
X4100Y10638D01*
X3987Y10623D01*
X3881Y10579D01*
X3857Y10561D01*
X3715Y10704D01*
X3656Y10743D01*
X3586Y10757D01*
X3586Y10757D01*
X1495D01*
X1479Y10794D01*
X1410Y10885D01*
X1319Y10954D01*
X1213Y10998D01*
X1100Y11013D01*
D02*
G37*
G36*
X5450Y9664D02*
X5330Y9648D01*
X5218Y9602D01*
X5122Y9528D01*
X5048Y9432D01*
X5027Y9382D01*
X4495D01*
X4479Y9419D01*
X4410Y9510D01*
X4319Y9579D01*
X4213Y9623D01*
X4100Y9638D01*
X3987Y9623D01*
X3881Y9579D01*
X3790Y9510D01*
X3721Y9419D01*
X3677Y9313D01*
X3662Y9200D01*
X3677Y9087D01*
X3721Y8981D01*
X3790Y8890D01*
X3881Y8821D01*
X3987Y8777D01*
X4100Y8762D01*
X4213Y8777D01*
X4319Y8821D01*
X4410Y8890D01*
X4479Y8981D01*
X4495Y9018D01*
X5027D01*
X5048Y8968D01*
X5122Y8872D01*
X5218Y8798D01*
X5330Y8752D01*
X5450Y8736D01*
X5570Y8752D01*
X5682Y8798D01*
X5778Y8872D01*
X5852Y8968D01*
X5898Y9080D01*
X5914Y9200D01*
X5898Y9320D01*
X5852Y9432D01*
X5778Y9528D01*
X5682Y9602D01*
X5570Y9648D01*
X5450Y9664D01*
D02*
G37*
G36*
Y8664D02*
X5330Y8648D01*
X5218Y8602D01*
X5122Y8528D01*
X5048Y8432D01*
X5027Y8382D01*
X4495D01*
X4479Y8419D01*
X4410Y8510D01*
X4319Y8579D01*
X4213Y8623D01*
X4100Y8638D01*
X3987Y8623D01*
X3881Y8579D01*
X3790Y8510D01*
X3721Y8419D01*
X3677Y8313D01*
X3662Y8200D01*
X3677Y8087D01*
X3692Y8049D01*
X2525Y6882D01*
X1495D01*
X1479Y6919D01*
X1410Y7010D01*
X1319Y7079D01*
X1213Y7123D01*
X1100Y7138D01*
X987Y7123D01*
X881Y7079D01*
X790Y7010D01*
X721Y6919D01*
X677Y6813D01*
X662Y6700D01*
X677Y6587D01*
X721Y6481D01*
X790Y6390D01*
X881Y6321D01*
X987Y6277D01*
X1100Y6262D01*
X1213Y6277D01*
X1319Y6321D01*
X1410Y6390D01*
X1479Y6481D01*
X1495Y6518D01*
X2600D01*
X2600Y6518D01*
X2670Y6532D01*
X2729Y6571D01*
X3950Y7792D01*
X3987Y7777D01*
X4100Y7762D01*
X4213Y7777D01*
X4319Y7821D01*
X4410Y7890D01*
X4479Y7981D01*
X4495Y8018D01*
X5027D01*
X5048Y7968D01*
X5122Y7872D01*
X5218Y7798D01*
X5330Y7752D01*
X5450Y7736D01*
X5570Y7752D01*
X5682Y7798D01*
X5778Y7872D01*
X5852Y7968D01*
X5898Y8080D01*
X5914Y8200D01*
X5898Y8320D01*
X5852Y8432D01*
X5778Y8528D01*
X5682Y8602D01*
X5570Y8648D01*
X5450Y8664D01*
D02*
G37*
G36*
X1150Y8152D02*
Y7750D01*
X1552D01*
X1543Y7819D01*
X1497Y7929D01*
X1424Y8024D01*
X1329Y8097D01*
X1219Y8143D01*
X1150Y8152D01*
D02*
G37*
G36*
X1050D02*
X981Y8143D01*
X871Y8097D01*
X776Y8024D01*
X703Y7929D01*
X657Y7819D01*
X648Y7750D01*
X1050D01*
Y8152D01*
D02*
G37*
G36*
X15450Y8664D02*
X15330Y8648D01*
X15218Y8602D01*
X15122Y8528D01*
X15048Y8432D01*
X15002Y8320D01*
X14986Y8200D01*
X15002Y8080D01*
X15048Y7968D01*
X15122Y7872D01*
X15218Y7798D01*
X15330Y7752D01*
X15450Y7736D01*
X15570Y7752D01*
X15682Y7798D01*
X15778Y7872D01*
X15852Y7968D01*
X15873Y8018D01*
X16455D01*
X16471Y7981D01*
X16540Y7890D01*
X16631Y7821D01*
X16737Y7777D01*
X16850Y7762D01*
X16963Y7777D01*
X17069Y7821D01*
X17160Y7890D01*
X17229Y7981D01*
X17245Y8018D01*
X18303D01*
Y7711D01*
X17975Y7382D01*
X17245D01*
X17229Y7419D01*
X17160Y7510D01*
X17069Y7579D01*
X16963Y7623D01*
X16850Y7638D01*
X16737Y7623D01*
X16631Y7579D01*
X16540Y7510D01*
X16471Y7419D01*
X16455Y7382D01*
X15873D01*
X15852Y7432D01*
X15778Y7528D01*
X15682Y7602D01*
X15570Y7648D01*
X15450Y7664D01*
X15330Y7648D01*
X15218Y7602D01*
X15122Y7528D01*
X15048Y7432D01*
X15002Y7320D01*
X14986Y7200D01*
X15002Y7080D01*
X15048Y6968D01*
X15122Y6872D01*
X15218Y6798D01*
X15330Y6752D01*
X15450Y6736D01*
X15570Y6752D01*
X15682Y6798D01*
X15778Y6872D01*
X15852Y6968D01*
X15873Y7018D01*
X16455D01*
X16471Y6981D01*
X16540Y6890D01*
X16631Y6821D01*
X16737Y6777D01*
X16850Y6762D01*
X16963Y6777D01*
X17069Y6821D01*
X17160Y6890D01*
X17229Y6981D01*
X17245Y7018D01*
X18050D01*
X18050Y7018D01*
X18120Y7032D01*
X18179Y7071D01*
X18561Y7453D01*
X18897D01*
Y8018D01*
X19075D01*
X19306Y7787D01*
X19301Y7750D01*
X19311Y7673D01*
X19341Y7600D01*
X19389Y7539D01*
X19450Y7491D01*
X19523Y7461D01*
X19600Y7451D01*
X19677Y7461D01*
X19750Y7491D01*
X19811Y7539D01*
X19859Y7600D01*
X19889Y7673D01*
X19899Y7750D01*
X19889Y7827D01*
X19859Y7900D01*
X19811Y7961D01*
X19750Y8009D01*
X19677Y8039D01*
X19600Y8049D01*
X19563Y8044D01*
X19279Y8329D01*
X19220Y8368D01*
X19150Y8382D01*
X19150Y8382D01*
X17245D01*
X17229Y8419D01*
X17160Y8510D01*
X17069Y8579D01*
X16963Y8623D01*
X16850Y8638D01*
X16737Y8623D01*
X16631Y8579D01*
X16540Y8510D01*
X16471Y8419D01*
X16455Y8382D01*
X15873D01*
X15852Y8432D01*
X15778Y8528D01*
X15682Y8602D01*
X15570Y8648D01*
X15450Y8664D01*
D02*
G37*
G36*
X5450Y7664D02*
X5330Y7648D01*
X5218Y7602D01*
X5122Y7528D01*
X5048Y7432D01*
X5027Y7382D01*
X4495D01*
X4479Y7419D01*
X4410Y7510D01*
X4319Y7579D01*
X4213Y7623D01*
X4100Y7638D01*
X3987Y7623D01*
X3881Y7579D01*
X3790Y7510D01*
X3721Y7419D01*
X3677Y7313D01*
X3662Y7200D01*
X3677Y7087D01*
X3692Y7049D01*
X2525Y5882D01*
X1495D01*
X1479Y5919D01*
X1410Y6010D01*
X1319Y6079D01*
X1213Y6123D01*
X1100Y6138D01*
X987Y6123D01*
X881Y6079D01*
X790Y6010D01*
X721Y5919D01*
X677Y5813D01*
X662Y5700D01*
X677Y5587D01*
X721Y5481D01*
X790Y5390D01*
X881Y5321D01*
X987Y5277D01*
X1100Y5262D01*
X1213Y5277D01*
X1319Y5321D01*
X1410Y5390D01*
X1479Y5481D01*
X1495Y5518D01*
X2600D01*
X2600Y5518D01*
X2670Y5532D01*
X2729Y5571D01*
X3950Y6792D01*
X3987Y6777D01*
X4100Y6762D01*
X4213Y6777D01*
X4319Y6821D01*
X4410Y6890D01*
X4479Y6981D01*
X4495Y7018D01*
X5027D01*
X5048Y6968D01*
X5122Y6872D01*
X5218Y6798D01*
X5330Y6752D01*
X5450Y6736D01*
X5570Y6752D01*
X5682Y6798D01*
X5778Y6872D01*
X5852Y6968D01*
X5898Y7080D01*
X5914Y7200D01*
X5898Y7320D01*
X5852Y7432D01*
X5778Y7528D01*
X5682Y7602D01*
X5570Y7648D01*
X5450Y7664D01*
D02*
G37*
G36*
X1552Y7650D02*
X1150D01*
Y7248D01*
X1219Y7257D01*
X1329Y7303D01*
X1424Y7376D01*
X1497Y7471D01*
X1543Y7581D01*
X1552Y7650D01*
D02*
G37*
G36*
X1050D02*
X648D01*
X657Y7581D01*
X703Y7471D01*
X776Y7376D01*
X871Y7303D01*
X981Y7257D01*
X1050Y7248D01*
Y7650D01*
D02*
G37*
G36*
X5450Y6664D02*
X5330Y6648D01*
X5218Y6602D01*
X5122Y6528D01*
X5048Y6432D01*
X5027Y6382D01*
X4495D01*
X4479Y6419D01*
X4410Y6510D01*
X4319Y6579D01*
X4213Y6623D01*
X4100Y6638D01*
X3987Y6623D01*
X3881Y6579D01*
X3790Y6510D01*
X3721Y6419D01*
X3677Y6313D01*
X3662Y6200D01*
X3677Y6087D01*
X3692Y6050D01*
X3321Y5679D01*
X3282Y5620D01*
X3268Y5550D01*
X3268Y5550D01*
Y4925D01*
X2950Y4608D01*
X2913Y4623D01*
X2800Y4638D01*
X2687Y4623D01*
X2581Y4579D01*
X2490Y4510D01*
X2421Y4419D01*
X2377Y4313D01*
X2362Y4200D01*
X2377Y4087D01*
X2421Y3981D01*
X2490Y3890D01*
X2581Y3821D01*
X2687Y3777D01*
X2800Y3762D01*
X2913Y3777D01*
X3019Y3821D01*
X3110Y3890D01*
X3179Y3981D01*
X3223Y4087D01*
X3238Y4200D01*
X3223Y4313D01*
X3208Y4351D01*
X3579Y4721D01*
X3579Y4721D01*
X3618Y4780D01*
X3632Y4850D01*
X3632Y4850D01*
Y5064D01*
X3682Y5074D01*
X3721Y4981D01*
X3790Y4890D01*
X3881Y4821D01*
X3987Y4777D01*
X4100Y4762D01*
X4213Y4777D01*
X4319Y4821D01*
X4410Y4890D01*
X4479Y4981D01*
X4495Y5018D01*
X5027D01*
X5048Y4968D01*
X5122Y4872D01*
X5218Y4798D01*
X5330Y4752D01*
X5450Y4736D01*
X5570Y4752D01*
X5682Y4798D01*
X5778Y4872D01*
X5852Y4968D01*
X5898Y5080D01*
X5914Y5200D01*
X5898Y5320D01*
X5852Y5432D01*
X5778Y5528D01*
X5682Y5602D01*
X5570Y5648D01*
X5450Y5664D01*
X5330Y5648D01*
X5218Y5602D01*
X5122Y5528D01*
X5048Y5432D01*
X5027Y5382D01*
X4495D01*
X4479Y5419D01*
X4410Y5510D01*
X4319Y5579D01*
X4213Y5623D01*
X4100Y5638D01*
X3987Y5623D01*
X3881Y5579D01*
X3790Y5510D01*
X3721Y5419D01*
X3682Y5326D01*
X3632Y5336D01*
Y5475D01*
X3950Y5792D01*
X3987Y5777D01*
X4100Y5762D01*
X4213Y5777D01*
X4319Y5821D01*
X4410Y5890D01*
X4479Y5981D01*
X4495Y6018D01*
X5027D01*
X5048Y5968D01*
X5122Y5872D01*
X5218Y5798D01*
X5330Y5752D01*
X5450Y5736D01*
X5570Y5752D01*
X5682Y5798D01*
X5778Y5872D01*
X5852Y5968D01*
X5898Y6080D01*
X5914Y6200D01*
X5898Y6320D01*
X5852Y6432D01*
X5778Y6528D01*
X5682Y6602D01*
X5570Y6648D01*
X5450Y6664D01*
D02*
G37*
G36*
X23050Y6402D02*
Y6000D01*
X23452D01*
X23443Y6069D01*
X23397Y6179D01*
X23324Y6274D01*
X23229Y6347D01*
X23119Y6393D01*
X23050Y6402D01*
D02*
G37*
G36*
X22950D02*
X22881Y6393D01*
X22771Y6347D01*
X22676Y6274D01*
X22603Y6179D01*
X22557Y6069D01*
X22548Y6000D01*
X22950D01*
Y6402D01*
D02*
G37*
G36*
X20980Y6414D02*
X20856Y6397D01*
X20741Y6350D01*
X20642Y6274D01*
X20566Y6175D01*
X20518Y6059D01*
X20502Y5936D01*
X20518Y5812D01*
X20566Y5697D01*
X20642Y5598D01*
X20741Y5522D01*
X20856Y5474D01*
X20980Y5458D01*
X21103Y5474D01*
X21218Y5522D01*
X21317Y5598D01*
X21393Y5697D01*
X21420Y5761D01*
X21608D01*
X21621Y5731D01*
X21690Y5640D01*
X21781Y5571D01*
X21887Y5527D01*
X22000Y5512D01*
X22113Y5527D01*
X22219Y5571D01*
X22310Y5640D01*
X22379Y5731D01*
X22423Y5837D01*
X22438Y5950D01*
X22423Y6063D01*
X22379Y6169D01*
X22310Y6260D01*
X22219Y6329D01*
X22113Y6373D01*
X22000Y6388D01*
X21887Y6373D01*
X21781Y6329D01*
X21690Y6260D01*
X21621Y6169D01*
X21602Y6125D01*
X21414D01*
X21393Y6175D01*
X21317Y6274D01*
X21218Y6350D01*
X21103Y6397D01*
X20980Y6414D01*
D02*
G37*
G36*
X23452Y5900D02*
X23050D01*
Y5498D01*
X23119Y5507D01*
X23229Y5553D01*
X23324Y5626D01*
X23397Y5721D01*
X23443Y5831D01*
X23452Y5900D01*
D02*
G37*
G36*
X22950D02*
X22548D01*
X22557Y5831D01*
X22603Y5721D01*
X22676Y5626D01*
X22771Y5553D01*
X22881Y5507D01*
X22950Y5498D01*
Y5900D01*
D02*
G37*
G36*
X15450Y6664D02*
X15330Y6648D01*
X15218Y6602D01*
X15122Y6528D01*
X15048Y6432D01*
X15027Y6382D01*
X12950D01*
X12880Y6368D01*
X12821Y6329D01*
X12821Y6329D01*
X12338Y5846D01*
X11904D01*
Y5412D01*
X11571Y5079D01*
X11532Y5020D01*
X11518Y4950D01*
X11518Y4950D01*
Y2350D01*
X11518Y2350D01*
X11532Y2280D01*
X11571Y2221D01*
X12721Y1071D01*
X12721Y1071D01*
X12780Y1032D01*
X12850Y1018D01*
X12850Y1018D01*
X17250D01*
X17250Y1018D01*
X17320Y1032D01*
X17379Y1071D01*
X18476Y2169D01*
X18476Y2169D01*
X18516Y2228D01*
X18530Y2298D01*
Y2353D01*
X18544Y2355D01*
X18659Y2402D01*
X18758Y2478D01*
X18834Y2577D01*
X18882Y2692D01*
X18898Y2816D01*
X18882Y2940D01*
X18834Y3055D01*
X18758Y3154D01*
X18659Y3230D01*
X18544Y3278D01*
X18420Y3294D01*
X18297Y3278D01*
X18182Y3230D01*
X18083Y3154D01*
X18032Y3088D01*
X17982Y3105D01*
Y3843D01*
X18032Y3860D01*
X18068Y3812D01*
X18171Y3733D01*
X18292Y3683D01*
X18370Y3673D01*
Y4164D01*
Y4656D01*
X18292Y4645D01*
X18171Y4595D01*
X18068Y4516D01*
X18032Y4469D01*
X17982Y4486D01*
Y5240D01*
X18240Y5498D01*
X18297Y5474D01*
X18420Y5458D01*
X18544Y5474D01*
X18659Y5522D01*
X18758Y5598D01*
X18834Y5697D01*
X18882Y5812D01*
X18898Y5936D01*
X18882Y6059D01*
X18834Y6175D01*
X18758Y6274D01*
X18659Y6350D01*
X18544Y6397D01*
X18420Y6414D01*
X18297Y6397D01*
X18182Y6350D01*
X18083Y6274D01*
X18007Y6175D01*
X17959Y6059D01*
X17943Y5936D01*
X17959Y5812D01*
X17983Y5755D01*
X17671Y5444D01*
X17632Y5385D01*
X17618Y5315D01*
X17618Y5315D01*
Y2225D01*
X17075Y1682D01*
X13025D01*
X12432Y2275D01*
Y3804D01*
X12596D01*
Y4238D01*
X13375Y5018D01*
X15027D01*
X15048Y4968D01*
X15122Y4872D01*
X15218Y4798D01*
X15330Y4752D01*
X15450Y4736D01*
X15570Y4752D01*
X15682Y4798D01*
X15778Y4872D01*
X15852Y4968D01*
X15873Y5018D01*
X16455D01*
X16471Y4981D01*
X16540Y4890D01*
X16631Y4821D01*
X16737Y4777D01*
X16850Y4762D01*
X16963Y4777D01*
X17069Y4821D01*
X17160Y4890D01*
X17229Y4981D01*
X17273Y5087D01*
X17288Y5200D01*
X17273Y5313D01*
X17229Y5419D01*
X17160Y5510D01*
X17069Y5579D01*
X16963Y5623D01*
X16850Y5638D01*
X16737Y5623D01*
X16631Y5579D01*
X16540Y5510D01*
X16471Y5419D01*
X16455Y5382D01*
X15873D01*
X15852Y5432D01*
X15778Y5528D01*
X15682Y5602D01*
X15570Y5648D01*
X15450Y5664D01*
X15330Y5648D01*
X15218Y5602D01*
X15122Y5528D01*
X15048Y5432D01*
X15027Y5382D01*
X13300D01*
X13230Y5368D01*
X13171Y5329D01*
X13171Y5329D01*
X12338Y4496D01*
X11904D01*
X11882Y4536D01*
Y4875D01*
X12162Y5154D01*
X12596D01*
Y5588D01*
X13025Y6018D01*
X15027D01*
X15048Y5968D01*
X15122Y5872D01*
X15218Y5798D01*
X15330Y5752D01*
X15450Y5736D01*
X15570Y5752D01*
X15682Y5798D01*
X15778Y5872D01*
X15852Y5968D01*
X15873Y6018D01*
X16455D01*
X16471Y5981D01*
X16540Y5890D01*
X16631Y5821D01*
X16737Y5777D01*
X16850Y5762D01*
X16963Y5777D01*
X17069Y5821D01*
X17160Y5890D01*
X17229Y5981D01*
X17273Y6087D01*
X17288Y6200D01*
X17273Y6313D01*
X17229Y6419D01*
X17160Y6510D01*
X17069Y6579D01*
X16963Y6623D01*
X16850Y6638D01*
X16737Y6623D01*
X16631Y6579D01*
X16540Y6510D01*
X16471Y6419D01*
X16455Y6382D01*
X15873D01*
X15852Y6432D01*
X15778Y6528D01*
X15682Y6602D01*
X15570Y6648D01*
X15450Y6664D01*
D02*
G37*
G36*
X5450Y4664D02*
X5330Y4648D01*
X5218Y4602D01*
X5122Y4528D01*
X5048Y4432D01*
X5027Y4382D01*
X4495D01*
X4479Y4419D01*
X4410Y4510D01*
X4319Y4579D01*
X4213Y4623D01*
X4100Y4638D01*
X3987Y4623D01*
X3881Y4579D01*
X3790Y4510D01*
X3721Y4419D01*
X3677Y4313D01*
X3662Y4200D01*
X3677Y4087D01*
X3721Y3981D01*
X3790Y3890D01*
X3881Y3821D01*
X3987Y3777D01*
X4100Y3762D01*
X4213Y3777D01*
X4319Y3821D01*
X4410Y3890D01*
X4479Y3981D01*
X4495Y4018D01*
X5027D01*
X5048Y3968D01*
X5122Y3872D01*
X5218Y3798D01*
X5330Y3752D01*
X5450Y3736D01*
X5570Y3752D01*
X5682Y3798D01*
X5778Y3872D01*
X5852Y3968D01*
X5898Y4080D01*
X5914Y4200D01*
X5898Y4320D01*
X5852Y4432D01*
X5778Y4528D01*
X5682Y4602D01*
X5570Y4648D01*
X5450Y4664D01*
D02*
G37*
G36*
X21030Y4656D02*
Y4214D01*
X21471D01*
X21461Y4293D01*
X21411Y4413D01*
X21332Y4516D01*
X21229Y4595D01*
X21108Y4645D01*
X21030Y4656D01*
D02*
G37*
G36*
X20930D02*
X20851Y4645D01*
X20731Y4595D01*
X20627Y4516D01*
X20548Y4413D01*
X20499Y4293D01*
X20488Y4214D01*
X20930D01*
Y4656D01*
D02*
G37*
G36*
X18470D02*
Y4214D01*
X18912D01*
X18901Y4293D01*
X18852Y4413D01*
X18773Y4516D01*
X18669Y4595D01*
X18549Y4645D01*
X18470Y4656D01*
D02*
G37*
G36*
X15450Y4664D02*
X15330Y4648D01*
X15218Y4602D01*
X15122Y4528D01*
X15048Y4432D01*
X15002Y4320D01*
X14986Y4200D01*
X15002Y4080D01*
X15048Y3968D01*
X15122Y3872D01*
X15218Y3798D01*
X15330Y3752D01*
X15450Y3736D01*
X15570Y3752D01*
X15682Y3798D01*
X15778Y3872D01*
X15852Y3968D01*
X15873Y4018D01*
X16455D01*
X16471Y3981D01*
X16540Y3890D01*
X16631Y3821D01*
X16737Y3777D01*
X16850Y3762D01*
X16963Y3777D01*
X17069Y3821D01*
X17160Y3890D01*
X17229Y3981D01*
X17273Y4087D01*
X17288Y4200D01*
X17273Y4313D01*
X17229Y4419D01*
X17160Y4510D01*
X17069Y4579D01*
X16963Y4623D01*
X16850Y4638D01*
X16737Y4623D01*
X16631Y4579D01*
X16540Y4510D01*
X16471Y4419D01*
X16455Y4382D01*
X15873D01*
X15852Y4432D01*
X15778Y4528D01*
X15682Y4602D01*
X15570Y4648D01*
X15450Y4664D01*
D02*
G37*
G36*
X21471Y4114D02*
X21030D01*
Y3673D01*
X21108Y3683D01*
X21229Y3733D01*
X21332Y3812D01*
X21411Y3915D01*
X21461Y4035D01*
X21471Y4114D01*
D02*
G37*
G36*
X20930D02*
X20488D01*
X20499Y4035D01*
X20548Y3915D01*
X20627Y3812D01*
X20731Y3733D01*
X20851Y3683D01*
X20930Y3673D01*
Y4114D01*
D02*
G37*
G36*
X18912D02*
X18470D01*
Y3673D01*
X18549Y3683D01*
X18669Y3733D01*
X18773Y3812D01*
X18852Y3915D01*
X18901Y4035D01*
X18912Y4114D01*
D02*
G37*
G36*
X5450Y3664D02*
X5330Y3648D01*
X5218Y3602D01*
X5122Y3528D01*
X5048Y3432D01*
X5027Y3382D01*
X4495D01*
X4479Y3419D01*
X4410Y3510D01*
X4319Y3579D01*
X4213Y3623D01*
X4100Y3638D01*
X3987Y3623D01*
X3881Y3579D01*
X3790Y3510D01*
X3721Y3419D01*
X3705Y3382D01*
X3195D01*
X3179Y3419D01*
X3110Y3510D01*
X3019Y3579D01*
X2913Y3623D01*
X2800Y3638D01*
X2687Y3623D01*
X2581Y3579D01*
X2490Y3510D01*
X2421Y3419D01*
X2377Y3313D01*
X2362Y3200D01*
X2377Y3087D01*
X2421Y2981D01*
X2490Y2890D01*
X2581Y2821D01*
X2687Y2777D01*
X2800Y2762D01*
X2913Y2777D01*
X3019Y2821D01*
X3110Y2890D01*
X3179Y2981D01*
X3195Y3018D01*
X3705D01*
X3721Y2981D01*
X3790Y2890D01*
X3881Y2821D01*
X3987Y2777D01*
X4100Y2762D01*
X4213Y2777D01*
X4319Y2821D01*
X4410Y2890D01*
X4479Y2981D01*
X4495Y3018D01*
X5027D01*
X5048Y2968D01*
X5122Y2872D01*
X5218Y2798D01*
X5330Y2752D01*
X5450Y2736D01*
X5570Y2752D01*
X5682Y2798D01*
X5778Y2872D01*
X5852Y2968D01*
X5898Y3080D01*
X5914Y3200D01*
X5898Y3320D01*
X5852Y3432D01*
X5778Y3528D01*
X5682Y3602D01*
X5570Y3648D01*
X5450Y3664D01*
D02*
G37*
G36*
X23050Y3252D02*
Y2850D01*
X23452D01*
X23443Y2919D01*
X23397Y3029D01*
X23324Y3124D01*
X23229Y3197D01*
X23119Y3243D01*
X23050Y3252D01*
D02*
G37*
G36*
X22950D02*
X22881Y3243D01*
X22771Y3197D01*
X22676Y3124D01*
X22603Y3029D01*
X22557Y2919D01*
X22548Y2850D01*
X22950D01*
Y3252D01*
D02*
G37*
G36*
X15450Y3664D02*
X15330Y3648D01*
X15218Y3602D01*
X15122Y3528D01*
X15048Y3432D01*
X15002Y3320D01*
X14986Y3200D01*
X15002Y3080D01*
X15048Y2968D01*
X15122Y2872D01*
X15218Y2798D01*
X15330Y2752D01*
X15450Y2736D01*
X15570Y2752D01*
X15682Y2798D01*
X15778Y2872D01*
X15852Y2968D01*
X15873Y3018D01*
X16455D01*
X16471Y2981D01*
X16540Y2890D01*
X16631Y2821D01*
X16737Y2777D01*
X16850Y2762D01*
X16963Y2777D01*
X17069Y2821D01*
X17160Y2890D01*
X17229Y2981D01*
X17273Y3087D01*
X17288Y3200D01*
X17273Y3313D01*
X17229Y3419D01*
X17160Y3510D01*
X17069Y3579D01*
X16963Y3623D01*
X16850Y3638D01*
X16737Y3623D01*
X16631Y3579D01*
X16540Y3510D01*
X16471Y3419D01*
X16455Y3382D01*
X15873D01*
X15852Y3432D01*
X15778Y3528D01*
X15682Y3602D01*
X15570Y3648D01*
X15450Y3664D01*
D02*
G37*
G36*
X5450Y2664D02*
X5330Y2648D01*
X5218Y2602D01*
X5122Y2528D01*
X5048Y2432D01*
X5034Y2398D01*
X4495D01*
X4479Y2435D01*
X4410Y2526D01*
X4319Y2595D01*
X4213Y2639D01*
X4100Y2654D01*
X3987Y2639D01*
X3881Y2595D01*
X3790Y2526D01*
X3721Y2435D01*
X3677Y2329D01*
X3662Y2216D01*
X3677Y2102D01*
X3721Y1997D01*
X3790Y1906D01*
X3881Y1836D01*
X3987Y1793D01*
X4100Y1778D01*
X4213Y1793D01*
X4319Y1836D01*
X4410Y1906D01*
X4479Y1997D01*
X4495Y2034D01*
X5021D01*
X5048Y1968D01*
X5122Y1872D01*
X5218Y1798D01*
X5330Y1752D01*
X5450Y1736D01*
X5570Y1752D01*
X5682Y1798D01*
X5778Y1872D01*
X5852Y1968D01*
X5898Y2080D01*
X5914Y2200D01*
X5898Y2320D01*
X5852Y2432D01*
X5778Y2528D01*
X5682Y2602D01*
X5570Y2648D01*
X5450Y2664D01*
D02*
G37*
G36*
X20980Y3294D02*
X20856Y3278D01*
X20741Y3230D01*
X20642Y3154D01*
X20566Y3055D01*
X20518Y2940D01*
X20502Y2816D01*
X20518Y2692D01*
X20566Y2577D01*
X20642Y2478D01*
X20741Y2402D01*
X20856Y2355D01*
X20980Y2338D01*
X21103Y2355D01*
X21218Y2402D01*
X21317Y2478D01*
X21393Y2577D01*
X21414Y2626D01*
X21602D01*
X21621Y2581D01*
X21690Y2490D01*
X21781Y2421D01*
X21887Y2377D01*
X22000Y2362D01*
X22113Y2377D01*
X22219Y2421D01*
X22310Y2490D01*
X22379Y2581D01*
X22423Y2687D01*
X22438Y2800D01*
X22423Y2913D01*
X22379Y3019D01*
X22310Y3110D01*
X22219Y3179D01*
X22113Y3223D01*
X22000Y3238D01*
X21887Y3223D01*
X21781Y3179D01*
X21690Y3110D01*
X21621Y3019D01*
X21609Y2990D01*
X21420D01*
X21393Y3055D01*
X21317Y3154D01*
X21218Y3230D01*
X21103Y3278D01*
X20980Y3294D01*
D02*
G37*
G36*
X23452Y2750D02*
X23050D01*
Y2348D01*
X23119Y2357D01*
X23229Y2403D01*
X23324Y2476D01*
X23397Y2571D01*
X23443Y2681D01*
X23452Y2750D01*
D02*
G37*
G36*
X22950D02*
X22548D01*
X22557Y2681D01*
X22603Y2571D01*
X22676Y2476D01*
X22771Y2403D01*
X22881Y2357D01*
X22950Y2348D01*
Y2750D01*
D02*
G37*
G36*
X2850Y2652D02*
Y2250D01*
X3252D01*
X3243Y2319D01*
X3197Y2429D01*
X3124Y2524D01*
X3029Y2597D01*
X2919Y2643D01*
X2850Y2652D01*
D02*
G37*
G36*
X2750D02*
X2681Y2643D01*
X2571Y2597D01*
X2476Y2524D01*
X2403Y2429D01*
X2357Y2319D01*
X2348Y2250D01*
X2750D01*
Y2652D01*
D02*
G37*
G36*
X15450Y2664D02*
X15330Y2648D01*
X15218Y2602D01*
X15122Y2528D01*
X15048Y2432D01*
X15002Y2320D01*
X14986Y2200D01*
X15002Y2080D01*
X15048Y1968D01*
X15122Y1872D01*
X15218Y1798D01*
X15330Y1752D01*
X15450Y1736D01*
X15570Y1752D01*
X15682Y1798D01*
X15778Y1872D01*
X15852Y1968D01*
X15879Y2034D01*
X16455D01*
X16471Y1997D01*
X16540Y1906D01*
X16631Y1836D01*
X16737Y1793D01*
X16850Y1778D01*
X16963Y1793D01*
X17069Y1836D01*
X17160Y1906D01*
X17229Y1997D01*
X17273Y2102D01*
X17288Y2216D01*
X17273Y2329D01*
X17229Y2435D01*
X17160Y2526D01*
X17069Y2595D01*
X16963Y2639D01*
X16850Y2654D01*
X16737Y2639D01*
X16631Y2595D01*
X16540Y2526D01*
X16471Y2435D01*
X16455Y2398D01*
X15866D01*
X15852Y2432D01*
X15778Y2528D01*
X15682Y2602D01*
X15570Y2648D01*
X15450Y2664D01*
D02*
G37*
G36*
X3252Y2150D02*
X2850D01*
Y1748D01*
X2919Y1757D01*
X3029Y1803D01*
X3124Y1876D01*
X3197Y1971D01*
X3243Y2081D01*
X3252Y2150D01*
D02*
G37*
G36*
X21030Y1536D02*
Y1094D01*
X21471D01*
X21461Y1173D01*
X21411Y1293D01*
X21332Y1397D01*
X21229Y1476D01*
X21108Y1525D01*
X21030Y1536D01*
D02*
G37*
G36*
X20930D02*
X20851Y1525D01*
X20731Y1476D01*
X20627Y1397D01*
X20548Y1293D01*
X20499Y1173D01*
X20488Y1094D01*
X20930D01*
Y1536D01*
D02*
G37*
G36*
X18470D02*
Y1094D01*
X18912D01*
X18901Y1173D01*
X18852Y1293D01*
X18773Y1397D01*
X18669Y1476D01*
X18549Y1525D01*
X18470Y1536D01*
D02*
G37*
G36*
X18370D02*
X18292Y1525D01*
X18171Y1476D01*
X18068Y1397D01*
X17989Y1293D01*
X17939Y1173D01*
X17929Y1094D01*
X18370D01*
Y1536D01*
D02*
G37*
G36*
X21471Y994D02*
X21030D01*
Y553D01*
X21108Y563D01*
X21229Y613D01*
X21332Y692D01*
X21411Y796D01*
X21461Y916D01*
X21471Y994D01*
D02*
G37*
G36*
X20930D02*
X20488D01*
X20499Y916D01*
X20548Y796D01*
X20627Y692D01*
X20731Y613D01*
X20851Y563D01*
X20930Y553D01*
Y994D01*
D02*
G37*
G36*
X18912D02*
X18470D01*
Y553D01*
X18549Y563D01*
X18669Y613D01*
X18773Y692D01*
X18852Y796D01*
X18901Y916D01*
X18912Y994D01*
D02*
G37*
G36*
X18370D02*
X17929D01*
X17939Y916D01*
X17989Y796D01*
X18068Y692D01*
X18171Y613D01*
X18292Y563D01*
X18370Y553D01*
Y994D01*
D02*
G37*
G36*
X22638Y1658D02*
X22506Y1645D01*
X22380Y1607D01*
X22263Y1544D01*
X22161Y1461D01*
X22078Y1359D01*
X22015Y1242D01*
X21977Y1116D01*
X21964Y984D01*
X21977Y853D01*
X22015Y726D01*
X22078Y610D01*
X22161Y508D01*
X22263Y424D01*
X22380Y362D01*
X22506Y323D01*
X22638Y310D01*
X22769Y323D01*
X22896Y362D01*
X23012Y424D01*
X23114Y508D01*
X23198Y610D01*
X23260Y726D01*
X23299Y853D01*
X23312Y984D01*
X23299Y1116D01*
X23260Y1242D01*
X23198Y1359D01*
X23114Y1461D01*
X23012Y1544D01*
X22896Y1607D01*
X22769Y1645D01*
X22638Y1658D01*
D02*
G37*
G36*
X984D02*
X853Y1645D01*
X726Y1607D01*
X610Y1544D01*
X508Y1461D01*
X424Y1359D01*
X362Y1242D01*
X323Y1116D01*
X310Y984D01*
X323Y853D01*
X362Y726D01*
X424Y610D01*
X508Y508D01*
X610Y424D01*
X726Y362D01*
X853Y323D01*
X984Y310D01*
X1116Y323D01*
X1242Y362D01*
X1359Y424D01*
X1461Y508D01*
X1544Y610D01*
X1607Y726D01*
X1645Y853D01*
X1658Y984D01*
X1645Y1116D01*
X1607Y1242D01*
X1544Y1359D01*
X1461Y1461D01*
X1359Y1544D01*
X1242Y1607D01*
X1116Y1645D01*
X984Y1658D01*
D02*
G37*
%LPD*%
G36*
X12068Y2305D02*
X12022Y2285D01*
X11882Y2425D01*
Y3763D01*
X11904Y3804D01*
X12068D01*
Y2305D01*
D02*
G37*
D10*
X18348Y2298D02*
Y2744D01*
X17250Y1200D02*
X18348Y2298D01*
X12850Y1200D02*
X17250D01*
X17800Y2150D02*
Y5315D01*
X18348Y2744D02*
X18420Y2816D01*
X17150Y1500D02*
X17800Y2150D01*
X12950Y1500D02*
X17150D01*
X1900Y15450D02*
X3450Y13900D01*
Y12850D02*
X4100Y12200D01*
X3450Y12850D02*
Y13900D01*
X1100Y15450D02*
X1900D01*
X1100Y5700D02*
X2600D01*
X4100Y7200D01*
X2600Y6700D02*
X4100Y8200D01*
X1100Y6700D02*
X2600D01*
X1138Y16412D02*
X1888D01*
X4100Y14200D01*
X1100Y16450D02*
X1138Y16412D01*
X3961Y10200D02*
X4100D01*
X1100Y10575D02*
X3586D01*
X3961Y10200D01*
Y11200D02*
X4100D01*
X1100Y11575D02*
X3586D01*
X3961Y11200D01*
X4100Y12200D02*
X5450D01*
X4100Y14200D02*
X5450D01*
X20150Y9200D02*
X21600Y7750D01*
X16850Y9200D02*
X20150D01*
X18150Y14200D02*
X18600Y13750D01*
X16850Y14200D02*
X18150D01*
X15450D02*
X16850D01*
Y7200D02*
X18050D01*
X18600Y7750D01*
X19150Y8200D02*
X19600Y7750D01*
X16850Y8200D02*
X19150D01*
X16850Y10200D02*
X19050D01*
X22600Y13750D01*
X16850Y11200D02*
X19050D01*
X21600Y13750D01*
X16850Y12200D02*
X18050D01*
X19600Y13750D01*
X19950Y14400D02*
X22750D01*
X19028D02*
X19950D01*
X20600Y13750D01*
Y7750D02*
X21100Y7250D01*
X12250Y5500D02*
X12950Y6200D01*
X15450D01*
X12250Y4150D02*
X13300Y5200D01*
X15450D01*
X20980Y5936D02*
X20987Y5943D01*
X21993D02*
X22000Y5950D01*
X20987Y5943D02*
X21993D01*
X21992Y2808D02*
X22000Y2800D01*
X20988Y2808D02*
X21992D01*
X20980Y2816D02*
X20988Y2808D01*
X17800Y5315D02*
X18420Y5936D01*
X2800Y4200D02*
X3450Y4850D01*
Y5550D01*
X4100Y6200D01*
X21980Y5970D02*
X22000Y5950D01*
X22750Y14400D02*
X23100Y14050D01*
Y7650D02*
Y14050D01*
X22700Y7250D02*
X23100Y7650D01*
X21100Y7250D02*
X22700D01*
X15450Y13200D02*
X16850D01*
X15450Y12200D02*
X16850D01*
X15450Y11200D02*
X16850D01*
X15450Y10200D02*
X16850D01*
X15450Y9200D02*
X16850D01*
X15450Y2200D02*
X15466Y2216D01*
X16850D01*
X15450Y3200D02*
X16850D01*
X15450Y4200D02*
X16850D01*
X15450Y5200D02*
X16850D01*
X15450Y6200D02*
X16850D01*
X15450Y7200D02*
X16850D01*
X15450Y8200D02*
X16850D01*
X4100Y13200D02*
X5450D01*
X4100Y11200D02*
X5450D01*
X4100Y10200D02*
X5450D01*
X5434Y2216D02*
X5450Y2200D01*
X4100Y2216D02*
X5434D01*
X4100Y4200D02*
X5450D01*
X4100Y5200D02*
X5450D01*
X4100Y7200D02*
X5450D01*
X4100Y8200D02*
X5450D01*
X4100Y9200D02*
X5450D01*
X4100Y6200D02*
X5450D01*
X4100Y3200D02*
X5450D01*
X2800D02*
X4100D01*
X11700Y2350D02*
X12850Y1200D01*
X11700Y4950D02*
X12250Y5500D01*
X11700Y2350D02*
Y4950D01*
X12250Y2200D02*
X12950Y1500D01*
X12250Y2200D02*
Y4150D01*
X18400Y15028D02*
X19028Y14400D01*
X20980Y2816D02*
X21139D01*
D27*
X21550Y18542D02*
D03*
Y16400D02*
D03*
D28*
X23000Y2800D02*
D03*
X22000D02*
D03*
X1100Y15450D02*
D03*
Y16450D02*
D03*
Y17450D02*
D03*
Y10575D02*
D03*
Y11575D02*
D03*
Y12575D02*
D03*
Y5700D02*
D03*
Y6700D02*
D03*
Y7700D02*
D03*
X2800Y2200D02*
D03*
Y3200D02*
D03*
Y4200D02*
D03*
X22000Y5950D02*
D03*
X23000D02*
D03*
X16850Y10200D02*
D03*
Y9200D02*
D03*
Y8200D02*
D03*
Y7200D02*
D03*
Y3200D02*
D03*
Y4200D02*
D03*
Y5200D02*
D03*
Y6200D02*
D03*
Y15200D02*
D03*
Y14200D02*
D03*
Y13200D02*
D03*
Y12200D02*
D03*
Y11200D02*
D03*
Y2216D02*
D03*
X4100Y10200D02*
D03*
Y9200D02*
D03*
Y8200D02*
D03*
Y7200D02*
D03*
Y3200D02*
D03*
Y4200D02*
D03*
Y5200D02*
D03*
Y6200D02*
D03*
Y15200D02*
D03*
Y14200D02*
D03*
Y13200D02*
D03*
Y12200D02*
D03*
Y11200D02*
D03*
Y2216D02*
D03*
D29*
X1100Y14450D02*
D03*
Y9575D02*
D03*
Y4700D02*
D03*
X2800Y1200D02*
D03*
X16850Y16200D02*
D03*
X4100D02*
D03*
D30*
X984Y19094D02*
D03*
X22638Y984D02*
D03*
X984D02*
D03*
D31*
X18600Y13750D02*
D03*
X19600D02*
D03*
X20600D02*
D03*
X21600D02*
D03*
X22600D02*
D03*
Y7750D02*
D03*
X21600D02*
D03*
X20600D02*
D03*
X19600D02*
D03*
D32*
X18600D02*
D03*
D33*
X12250Y5500D02*
D03*
Y4150D02*
D03*
D34*
X18420Y2816D02*
D03*
X20980D02*
D03*
Y5936D02*
D03*
X18420D02*
D03*
Y1044D02*
D03*
X20980D02*
D03*
X18420Y4164D02*
D03*
X20980D02*
D03*
D35*
X8707Y4150D02*
D03*
Y5500D02*
D03*
X18400Y18572D02*
D03*
D36*
X12900Y16200D02*
D03*
X8300Y11900D02*
D03*
D37*
X12900Y17000D02*
D03*
X8300Y11100D02*
D03*
D38*
X18400Y15028D02*
D03*
D39*
X5450Y16200D02*
D03*
Y15200D02*
D03*
Y14200D02*
D03*
Y13200D02*
D03*
Y12200D02*
D03*
Y11200D02*
D03*
Y10200D02*
D03*
Y9200D02*
D03*
Y8200D02*
D03*
Y7200D02*
D03*
Y6200D02*
D03*
Y5200D02*
D03*
Y4200D02*
D03*
Y3200D02*
D03*
Y2200D02*
D03*
X15450Y16200D02*
D03*
Y15200D02*
D03*
Y14200D02*
D03*
Y13200D02*
D03*
Y12200D02*
D03*
Y11200D02*
D03*
Y10200D02*
D03*
Y9200D02*
D03*
Y8200D02*
D03*
Y7200D02*
D03*
Y6200D02*
D03*
Y5200D02*
D03*
Y4200D02*
D03*
Y3200D02*
D03*
Y2200D02*
D03*
D40*
X11919Y14050D02*
D03*
D41*
X9281Y14952D02*
D03*
Y14050D02*
D03*
Y13148D02*
D03*
D42*
X19208Y16200D02*
X21550Y18542D01*
X16850Y16200D02*
X19208D01*
X250Y8725D02*
Y13600D01*
Y3750D02*
Y8725D01*
X1100Y9575D01*
Y2900D02*
X2800Y1200D01*
X250Y3750D02*
X1100Y2900D01*
Y4700D01*
X8300Y16400D02*
X10472Y18572D01*
X8300Y14982D02*
Y16400D01*
X10472Y18572D02*
X11850D01*
X9300Y4743D02*
Y6093D01*
X8707Y5500D02*
X9300Y6093D01*
X8707Y5500D02*
Y5500D01*
X9300Y6093D02*
Y10900D01*
Y3750D02*
Y4743D01*
X8707Y4150D02*
Y4150D01*
X9300Y4743D01*
X8300Y11900D02*
X9300Y10900D01*
X6400Y850D02*
X9300Y3750D01*
X3150Y850D02*
X6400D01*
X250Y13600D02*
X1100Y14450D01*
X2800Y1200D02*
X3150Y850D01*
X11850Y18572D02*
X18400Y18572D01*
X4100Y16200D02*
X5450D01*
X8300Y11900D02*
Y14982D01*
X9330Y14952D02*
X10579Y16200D01*
X12900D02*
X15450D01*
X10579D02*
X12900D01*
X9281Y14952D02*
X9330D01*
X8300Y14982D02*
X9232Y14050D01*
X9281D01*
X15450Y16200D02*
X16850D01*
M02*
